<svg xmlns="http://www.w3.org/2000/svg" xmlns:xlink="http://www.w3.org/1999/xlink" viewBox="0 0 30 30" fill="#000558">
  <path d="M6 5 A 2 2 0 0 0 4 7 A 2 2 0 0 0 6 9 A 2 2 0 0 0 8 7 A 2 2 0 0 0 6 5 z M 12 6 A 1.0001 1.0001 0 1 0 12 8L25 8 A 1.0001 1.0001 0 1 0 25 6L12 6 z M 6 13 A 2 2 0 0 0 4 15 A 2 2 0 0 0 6 17 A 2 2 0 0 0 8 15 A 2 2 0 0 0 6 13 z M 12 14 A 1.0001 1.0001 0 1 0 12 16L25 16 A 1.0001 1.0001 0 1 0 25 14L12 14 z M 6 21 A 2 2 0 0 0 4 23 A 2 2 0 0 0 6 25 A 2 2 0 0 0 8 23 A 2 2 0 0 0 6 21 z M 12 22 A 1.0001 1.0001 0 1 0 12 24L25 24 A 1.0001 1.0001 0 1 0 25 22L12 22 z" fill="#000558" />
</svg>