<?xml version="1.0" encoding="utf-8"?>
<!-- Generator: Adobe Illustrator 24.0.0, SVG Export Plug-In . SVG Version: 6.00 Build 0)  -->
<svg version="1.1" id="Layer_1" xmlns="http://www.w3.org/2000/svg" xmlns:xlink="http://www.w3.org/1999/xlink" x="0px" y="0px"
	 viewBox="0 0 24 24" style="enable-background:new 0 0 24 24;" xml:space="preserve">
<style type="text/css">
	.st0{fill:#878FC4;}
	.st1{fill:#A4A5B2;}
</style>
<path class="st0" d="M10.9,11.6H0.7c-0.4,0-0.6-0.3-0.6-0.6V0.7C0,0.3,0.3,0,0.7,0h10.3c0.4,0,0.6,0.3,0.6,0.6v10.3
	C11.6,11.3,11.3,11.6,10.9,11.6z"/>
<path class="st1" d="M10.9,24H1.6c-0.4,0-0.6-0.3-0.6-0.6V14c0-0.4,0.3-0.6,0.6-0.6h9.3c0.4,0,0.6,0.3,0.6,0.6v9.3
	C11.5,23.7,11.2,24,10.9,24z"/>
<path class="st1" d="M23.3,11.5H14c-0.4,0-0.6-0.3-0.6-0.6V1.6c0-0.4,0.3-0.6,0.6-0.6h9.3c0.4,0,0.6,0.3,0.6,0.6v9.3
	C24,11.2,23.7,11.5,23.3,11.5z"/>
<path class="st1" d="M23.3,24H14c-0.4,0-0.6-0.3-0.6-0.6V14c0-0.4,0.3-0.6,0.6-0.6h9.3c0.4,0,0.6,0.3,0.6,0.6v9.3
	C24,23.7,23.7,24,23.3,24z"/>
</svg>
