<?xml version="1.0" encoding="utf-8"?>
<!-- Generator: Adobe Illustrator 24.0.0, SVG Export Plug-In . SVG Version: 6.00 Build 0)  -->
<svg version="1.1" id="Layer_1" xmlns="http://www.w3.org/2000/svg" xmlns:xlink="http://www.w3.org/1999/xlink" x="0px" y="0px"
	 viewBox="0 0 48 48" style="enable-background:new 0 0 48 48;" xml:space="preserve">
<style type="text/css">
	.st0{fill:#CFF5FF;}
	.st1{fill:#0D47A1;}
	.st2{fill:#84FFFF;}
	.st3{fill:#1976D2;}
	.st4{fill:#0091EA;}
	.st5{fill:#00B0FF;}
	.st6{fill:#00E5FF;}
	.st7{fill:#E0F7FA;}
</style>
<rect class="st0" width="48" height="48"/>
<path class="st1" d="M31.65,19.59h8.16l-15.51,17.9L31.65,19.59z"/>
<path class="st2" d="M8.53,19.59L16.69,11v8.59H8.53z"/>
<path class="st3" d="M31.38,11v8.59h8.16L31.38,11z"/>
<path class="st4" d="M16.96,19.59L24.3,37.6l7.35-18.01H16.96z M16.69,11h7.34l-7.34,8.59V11z M24.03,11l7.34,8.59V11H24.03z"/>
<path class="st5" d="M31.38,19.59H16.69L24.03,11L31.38,19.59z M31.38,19.83l4.08-1.43l4.08,1.43l-4.08,1.43L31.38,19.83z"/>
<path class="st6" d="M16.96,19.59H8.8L24.3,37.6L16.96,19.59z M16.96,19.83l7.34-1.43l7.34,1.43l-7.34,1.43L16.96,19.83z"/>
<path class="st7" d="M8.8,19.59l4.08-1.43l4.08,1.43l-4.08,1.43L8.8,19.59z"/>
</svg>
