<?xml version="1.0" encoding="utf-8"?>
<!-- Generator: Adobe Illustrator 24.0.0, SVG Export Plug-In . SVG Version: 6.00 Build 0)  -->
<svg version="1.1" id="Layer_1" xmlns="http://www.w3.org/2000/svg" xmlns:xlink="http://www.w3.org/1999/xlink" x="0px" y="0px"
	 viewBox="0 0 48 48" style="enable-background:new 0 0 48 48;" xml:space="preserve">
<style type="text/css">
	.st0{fill:#D7FFD7;}
	.st1{fill:#008C0D;}
</style>
<rect class="st0" width="48" height="48"/>
<path class="st1" d="M22.58,14.35v1.88c-1.83,0.66-3.17,2.41-3.17,4.45c0,2.6,2.15,4.75,4.75,4.75c0.9,0,1.58,0.69,1.58,1.58
	s-0.69,1.58-1.58,1.58s-1.58-0.69-1.58-1.58h-3.17c0,2.05,1.34,3.79,3.17,4.45v1.88h3.17v-1.88c1.83-0.66,3.17-2.41,3.17-4.45
	c0-2.6-2.15-4.75-4.75-4.75c-0.9,0-1.58-0.69-1.58-1.58c0-0.9,0.69-1.58,1.58-1.58s1.58,0.69,1.58,1.58h3.17
	c0-2.05-1.34-3.79-3.17-4.45v-1.88H22.58z"/>
</svg>
