<svg xmlns="http://www.w3.org/2000/svg" xmlns:xlink="http://www.w3.org/1999/xlink" viewBox="0 0 48 48" fill="#FFFFFF">
  <path d="M9.4765625 4.9785156 A 1.50015 1.50015 0 0 0 8 6.5L8 8L6.5 8 A 1.50015 1.50015 0 1 0 6.5 11L8 11L8 12.5 A 1.50015 1.50015 0 1 0 11 12.5L11 11L12.5 11 A 1.50015 1.50015 0 1 0 12.5 8L11 8L11 6.5 A 1.50015 1.50015 0 0 0 9.4765625 4.9785156 z M 33.476562 8.9785156 A 1.50015 1.50015 0 0 0 32 10.5L32 12L30.5 12 A 1.50015 1.50015 0 1 0 30.5 15L32 15L32 16.5 A 1.50015 1.50015 0 1 0 35 16.5L35 15L36.5 15 A 1.50015 1.50015 0 1 0 36.5 12L35 12L35 10.5 A 1.50015 1.50015 0 0 0 33.476562 8.9785156 z M 17.060547 15.060547C16.290547 15.060547 15.519453 15.359453 14.939453 15.939453C13.769453 17.109453 13.769453 19.009453 14.939453 20.189453L17.859375 23.109375L22.050781 18.810547L19.189453 15.939453C18.599453 15.359453 17.830547 15.060547 17.060547 15.060547 z M 24.179688 20.929688L19.990234 25.230469L37.810547 43.050781C38.400547 43.640781 39.159688 43.929688 39.929688 43.929688C40.699688 43.929687 41.460781 43.640781 42.050781 43.050781C43.220781 41.880781 43.220781 39.980547 42.050781 38.810547L24.179688 20.929688 z M 13.476562 29.978516 A 1.50015 1.50015 0 0 0 12 31.5L12 33L10.5 33 A 1.50015 1.50015 0 1 0 10.5 36L12 36L12 37.5 A 1.50015 1.50015 0 1 0 15 37.5L15 36L16.5 36 A 1.50015 1.50015 0 1 0 16.5 33L15 33L15 31.5 A 1.50015 1.50015 0 0 0 13.476562 29.978516 z" fill="#FFFFFF" />
</svg>