<?xml version="1.0" encoding="utf-8"?>
<!-- Generator: Adobe Illustrator 24.0.0, SVG Export Plug-In . SVG Version: 6.00 Build 0)  -->
<svg version="1.1" id="Layer_1" xmlns="http://www.w3.org/2000/svg" xmlns:xlink="http://www.w3.org/1999/xlink" x="0px" y="0px"
	 viewBox="0 0 48 48" style="enable-background:new 0 0 48 48;" xml:space="preserve">
<style type="text/css">
	.st0{fill:#FFE1D4;}
	.st1{fill:#FF9C52;}
	.st2{fill:#FF6D00;}
</style>
<rect class="st0" width="48" height="48"/>
<path class="st1" d="M33.9,18.72v16.49c0,0.73-0.59,1.32-1.32,1.32H15.42c-0.73,0-1.32-0.59-1.32-1.32V12.78
	c0-0.73,0.59-1.32,1.32-1.32h11.22L33.9,18.72z"/>
<path class="st2" d="M26.64,11.47v5.94c0,0.73,0.59,1.32,1.32,1.32h5.94L26.64,11.47z"/>
<path class="st0" d="M23.6,18.41h-7.55c-0.22,0-0.4-0.18-0.4-0.4l0,0c0-0.22,0.18-0.4,0.4-0.4h7.55c0.22,0,0.4,0.18,0.4,0.4l0,0
	C24,18.23,23.82,18.41,23.6,18.41z"/>
<path class="st0" d="M28.36,21.11H16.06c-0.22,0-0.4-0.18-0.4-0.4l0,0c0-0.22,0.18-0.4,0.4-0.4h12.31c0.22,0,0.4,0.18,0.4,0.4l0,0
	C28.76,20.93,28.58,21.11,28.36,21.11z"/>
<path class="st0" d="M30.27,23.81H16.06c-0.22,0-0.4-0.18-0.4-0.4v0c0-0.22,0.18-0.4,0.4-0.4h14.22c0.22,0,0.4,0.18,0.4,0.4v0
	C30.67,23.64,30.49,23.81,30.27,23.81z"/>
</svg>
