<?xml version="1.0" encoding="utf-8"?>
<!-- Generator: Adobe Illustrator 24.0.0, SVG Export Plug-In . SVG Version: 6.00 Build 0)  -->
<svg version="1.1" id="Layer_1" xmlns="http://www.w3.org/2000/svg" xmlns:xlink="http://www.w3.org/1999/xlink" x="0px" y="0px"
	 viewBox="0 0 44.4 24" style="enable-background:new 0 0 44.4 24;" xml:space="preserve">
<style type="text/css">
	.st0{fill:#DDE3EB;}
	.st1{fill:#F0F3F6;}
	.st2{fill:#E0844F;}
	.st3{fill:#141720;}
	.st4{fill:#EBC09B;}
	.st5{fill:#5AB6B1;}
	.st6{fill:#B7DC78;stroke:#FFFFFF;stroke-miterlimit:10;}
	.st7{fill:#B6DB78;}
	.st8{fill:#9C78DB;}
	.st9{fill:#A996CA;}
	.st10{fill:#C3E290;}
	.st11{fill:#DEB18A;}
	.st12{fill:#E6EBF1;}
	.st13{fill:#DDBDD3;}
	.st14{fill:#DEBDD0;}
	.st15{fill:#D4DCE6;}
	.st16{fill:#FDFEFF;}
	.st17{fill:#421800;}
	.st18{fill:#B24FC4;}
	.st19{fill:#EFCFB3;}
</style>
<path class="st0" d="M30.6,1.1c-0.2,0.1-0.3,0-0.5,0c0,0,0,0,0,0c0,0,0,0,0,0C30.3,1.1,30.4,1.1,30.6,1.1z"/>
<path class="st0" d="M31.4,1.2c-0.2,0-0.3,0-0.5,0C31.1,1.1,31.2,1.1,31.4,1.2C31.4,1.2,31.4,1.2,31.4,1.2
	C31.4,1.2,31.4,1.2,31.4,1.2z"/>
<path class="st0" d="M40.5,12.2c0-0.2,0-0.3,0-0.5C40.5,11.9,40.5,12.1,40.5,12.2C40.5,12.3,40.5,12.2,40.5,12.2z"/>
<path class="st1" d="M30.1,1.1C30.1,1.2,30.1,1.2,30.1,1.1c-0.1,0-0.1,0-0.2,0c0,0,0,0,0,0C30,1.1,30,1.1,30.1,1.1z"/>
<path class="st1" d="M31.4,1.2C31.4,1.2,31.4,1.2,31.4,1.2c0.1,0,0.1,0,0.2,0c0,0,0,0,0,0C31.5,1.2,31.5,1.2,31.4,1.2z"/>
<path class="st1" d="M40.5,11.9C40.5,11.9,40.5,11.9,40.5,11.9c0,0.1,0,0.1,0,0.2c0,0,0,0,0,0C40.5,12,40.5,12,40.5,11.9z"/>
<g>
	<path class="st2" d="M-30.9,5.8c0.1,0,0.1,0,0.2,0c0.1,0,0.2,0,0.2,0c0.1,0,0.2,0,0.2,0c0.1,0,0.2,0,0.2,0c0.1,0,0.2,0,0.2,0
		c0.1,0,0.2,0,0.2,0c0.1,0,0.1,0,0.2,0c0.3,0,0.6,0,0.9,0.1c0.6,0.1,1.2,0.2,1.8,0.5c1.1,0.4,2.2,1,3.1,1.7c0.9,0.8,1.7,1.7,2.3,2.7
		c0.7,1.1,1.2,2.3,1.3,3.6c0.1,0.8,0.1,1.6,0.1,2.4c0,0.4,0,0.8-0.1,1.1c-0.1,0.9-0.4,1.7-0.8,2.5c-0.4,0.8-0.8,1.6-1.4,2.3
		c-0.7,0.9-1.6,1.7-2.5,2.3c-0.1,0.1-0.2,0.1-0.3,0.1c-0.1,0-0.2-0.1-0.2-0.2c-0.6-1-1.4-1.8-2.5-2.3c-0.3-0.2-0.6-0.4-0.9-0.7
		c-0.1-0.1-0.1-0.2-0.1-0.3c0.1-0.3,0-0.5,0-0.8c0-0.2-0.1-0.2-0.2-0.4c0-0.1,0.1-0.2,0.1-0.2c0.4-0.3,0.7-0.5,1-0.9
		c0.1-0.1,0.1-0.1,0.2-0.2c0.2-0.1,0.4-0.3,0.6-0.4c0.8-0.7,1.5-1.5,1.9-2.5c0.3-0.6,0.4-1.3,0.5-2c0.1-1,0-1.9-0.3-2.9
		c-0.3-0.8-0.7-1.6-1.3-2.3c-0.9-1-2.1-1.7-3.5-1.9c-0.8-0.1-1.6-0.1-2.5,0.2c-1,0.3-1.8,0.8-2.5,1.5c-1,1-1.6,2.2-1.8,3.6
		c-0.2,1.3,0,2.5,0.5,3.6c0.4,0.9,1,1.8,1.8,2.4c0.1,0.1,0.3,0.2,0.4,0.3C-33.3,19-33.2,19-33,19c0.4,0.3,0.6,0.6,1,0.8
		c0.1,0.1,0.2,0.1,0.3,0.2c0.1,0,0.1,0.1,0.1,0.2c-0.3,0.4-0.2,0.9-0.1,1.4c0,0.1,0,0.2-0.1,0.3c-0.3,0.3-0.6,0.5-1,0.8
		c-0.9,0.5-1.6,1.2-2.2,2.2c-0.1,0.1-0.1,0.2-0.2,0.2c-0.1,0-0.2,0-0.3-0.1c-0.6-0.4-1.1-0.8-1.6-1.2c-0.7-0.7-1.4-1.5-1.9-2.4
		c-0.6-1-1-2.1-1.2-3.3c-0.1-0.4,0-0.7-0.1-1.1c0-0.1,0-0.2,0-0.2c0-0.1,0-0.2,0-0.2c0-0.1,0-0.2,0-0.2c0-0.1,0-0.2,0-0.2
		c0-0.1,0-0.2,0-0.2c0-0.1,0-0.2,0-0.2c0-0.1,0-0.2,0-0.2c0-0.3,0-0.6,0.1-0.9c0.1-0.6,0.2-1.3,0.5-1.9c0.4-1.1,1-2.1,1.7-3
		c0.9-1.1,2-2,3.3-2.7c0.9-0.5,1.8-0.8,2.8-1c0.4-0.1,0.7-0.1,1.1-0.1C-31,5.8-30.9,5.8-30.9,5.8z"/>
	<path class="st3" d="M-33.1,19.1c-0.3-0.1-0.6-0.4-0.9-0.6c-1.3-1.2-2-2.6-2.2-4.3c-0.2-1.7,0.2-3.3,1.2-4.7
		c0.9-1.3,2.2-2.1,3.8-2.4c1.7-0.3,3.3,0.1,4.7,1.2c1.8,1.5,2.5,3.4,2.4,5.6c-0.1,2.1-1,3.8-2.8,5c-0.1,0.1-0.2,0.1-0.3,0.2
		c-0.1-0.1,0-0.2,0.1-0.3c0.2-0.3,0.5-0.6,0.7-1c0.4-0.7,0.7-1.5,0.8-2.4c0.1-0.6,0-1.3,0-1.9c0-0.2-0.1-0.2-0.2-0.2
		c-0.1,0-0.1,0-0.2,0c-2.7,0-5.5,0-8.2,0c-0.4,0-0.4,0-0.4,0.4c0,0.7,0,1.3,0.1,2c0.2,1.2,0.6,2.2,1.4,3.1
		C-33.1,18.9-33,19-33.1,19.1z"/>
	<path class="st4" d="M-33.1,19.1c-0.2-0.2-0.4-0.5-0.5-0.7c-0.7-1.1-1.1-2.2-1.1-3.5c0-0.5,0-1,0-1.4c0-0.1,0-0.2,0.2-0.2
		c3,0,5.9,0,8.9,0c0.1,0,0.2,0,0.2,0.1c0,0.8,0.1,1.7-0.1,2.5c-0.2,1.2-0.7,2.2-1.5,3.1c0,0,0,0,0,0.1c-0.4,0.4-0.9,0.8-1.4,1.2
		c0,0.2-0.2,0.2-0.4,0.3c-1,0.5-1.9,0.4-2.8-0.1c-0.1,0-0.1-0.1-0.1-0.2C-32.2,19.9-32.7,19.5-33.1,19.1z"/>
	<path class="st5" d="M-31.7,20.2c0.2,0.1,0.5,0.3,0.7,0.4c0.8,0.3,1.5,0.2,2.2-0.2c0.1-0.1,0.2-0.1,0.3-0.2
		c0.1,0.1,0.2,0.2,0.2,0.3c0,0.3,0.1,0.6,0,1c0,0.1,0,0.2,0.1,0.2c0.3,0.3,0.6,0.6,1,0.8c1,0.6,1.8,1.4,2.4,2.4
		c-0.7,0.5-1.5,0.8-2.4,1.1c-1.3,0.4-2.6,0.5-3.9,0.4c-1.5-0.1-2.9-0.6-4.2-1.4c0,0,0,0,0,0c0.6-1,1.4-1.8,2.4-2.4
		c0.4-0.2,0.7-0.5,1-0.8c0.1-0.1,0.1-0.1,0.1-0.3c-0.1-0.4-0.1-0.7,0-1.1C-31.9,20.4-31.8,20.3-31.7,20.2z"/>
</g>
<path class="st0" d="M40.5,12.2c-0.1-0.2,0-0.3,0-0.5c0,0,0,0,0,0C40.5,11.9,40.5,12.1,40.5,12.2z"/>
<path class="st1" d="M40.5,12.1L40.5,12.1C40.5,12.1,40.5,12.1,40.5,12.1c0-0.1,0-0.1,0-0.2c0,0,0,0,0,0C40.5,12,40.5,12,40.5,12.1z
	"/>
<circle class="st6" cx="14.9" cy="12" r="9.5"/>
<path class="st7" d="M24.5,12.5c0,0.1,0,0.2,0,0.4c0,0.3,0,0.5-0.1,0.8c-0.1,0.6-0.2,1.2-0.4,1.7c-0.4,1-0.9,1.9-1.6,2.7
	c-0.7,0.8-1.4,1.5-2.3,2.1c-0.1,0.1-0.2,0.1-0.3,0.1c-0.1-0.1-0.3-0.3-0.2-0.5c0.1-0.1,0.1-0.2,0.1-0.3c-0.1-0.2-0.1-0.5-0.2-0.7
	c0-0.1,0-0.2,0.1-0.3c0.3-0.4,0.3-0.8,0.2-1.2c0-0.1,0-0.2,0-0.3c0.1-0.2,0.1-0.5,0-0.7c-0.1-0.2-0.1-0.4,0-0.6
	c0.1-0.2,0.1-0.4,0-0.6c-0.1-0.2-0.1-0.4,0-0.5c0.1-0.2,0.1-0.4,0-0.7c0-0.1,0-0.3,0-0.4c0.1-0.2,0.1-0.5,0-0.7c0-0.1,0-0.2,0-0.3
	c0.1-0.2,0.1-0.5,0-0.7c0-0.1,0-0.3,0-0.4c0.1-0.2,0.1-0.4,0-0.6c-0.1-0.3,0-0.5,0-0.7c0-0.1,0-0.2,0-0.3c0-0.2,0-0.4,0.1-0.7
	c0.2-1.5-0.1-2.8-1-3.9c-0.8-1-1.9-1.6-3.2-1.8c-1.4-0.2-2.7,0.2-3.8,1.1c-1,0.9-1.6,2-1.7,3.3C10,8.1,10,8.6,10.1,9.1
	c0.1,0.3,0,0.6,0.1,0.9c0.1,0.3,0.1,0.5,0,0.8c-0.1,0.2,0,0.4,0,0.6c0,0.1,0,0.2,0,0.4c-0.1,0.3-0.1,0.5,0,0.8c0,0.1,0,0.2,0,0.3
	c-0.1,0.3-0.1,0.5,0,0.8c0,0.1,0,0.2,0,0.3c-0.1,0.2-0.1,0.5,0,0.7c0,0.2,0,0.3,0,0.5c-0.1,0.2-0.1,0.5,0,0.7c0,0.1,0,0.2,0,0.4
	c-0.1,0.3-0.1,0.5,0,0.8c0,0.1,0,0.2,0,0.3c-0.1,0.4-0.1,0.8,0.2,1.2c0.1,0.1,0.1,0.2,0,0.3c-0.1,0.3-0.2,0.5-0.2,0.8
	c0,0.1,0,0.2,0.1,0.3c0.1,0.2-0.1,0.4-0.2,0.5c-0.1,0-0.2,0-0.3-0.1c-0.5-0.3-1-0.7-1.4-1.1c-0.7-0.7-1.3-1.4-1.7-2.2
	c-0.6-1-1-2.1-1.1-3.2c-0.1-0.7-0.1-1.5-0.1-2.2c0-0.4,0-0.9,0.1-1.3c0.3-1.3,0.8-2.5,1.6-3.6c0.3-0.4,0.7-0.8,1-1.2
	c1.2-1.2,2.7-2.1,4.4-2.5c0.6-0.2,1.2-0.2,1.8-0.2c0.7,0,1.4,0,2,0C17,2.6,17.7,2.8,18.3,3c1.1,0.4,2.1,1,3,1.8
	c0.9,0.8,1.6,1.6,2.2,2.7c0.5,0.9,0.8,1.8,1,2.7c0.1,0.3,0.1,0.7,0.1,1c0,0,0,0.1,0,0.1c0,0.1,0,0.2,0,0.3c0,0.1,0,0.2,0,0.3
	c0,0.1,0,0.2,0,0.3C24.5,12.3,24.5,12.4,24.5,12.5z"/>
<path class="st8" d="M14.2,21.6c-0.2-0.1-0.5-0.1-0.7-0.1c-1.2-0.2-2.3-0.6-3.3-1.2c0,0,0,0-0.1,0c0.1-0.2,0.2-0.3,0.2-0.5
	c0-0.1,0-0.1,0.1-0.2c0.2-0.3,0.4-0.5,0.6-0.7c0.2-0.2,0.4-0.4,0.6-0.5c0.1-0.1,0.2-0.2,0.4-0.2c0.2,0.1,0.3,0.2,0.4,0.4
	c0.3,0.4,0.7,0.7,1.2,0.7c0.4,0,0.7-0.1,1-0.4c0.1-0.1,0.2-0.2,0.3-0.2c0,0,0,0,0.1,0c0.2,0.1,0.4,0.3,0.6,0.5
	c0.6,0.3,1.3,0.1,1.7-0.3c0.2-0.2,0.3-0.3,0.5-0.5c0,0,0.1-0.1,0.1-0.1c0.2,0,0.3,0.1,0.4,0.2c0.2,0.2,0.4,0.3,0.6,0.5
	c0.2,0.2,0.4,0.4,0.6,0.7c0,0.1,0.1,0.1,0.1,0.2c0.1,0.2,0.2,0.3,0.2,0.5c0,0.1-0.1,0.1-0.1,0.2c-0.4,0.3-0.9,0.4-1.3,0.6
	c-0.6,0.2-1.2,0.4-1.8,0.5c-0.3,0-0.6,0-0.9,0.1c-0.1,0-0.1,0-0.2,0c-0.1,0-0.2,0-0.3,0c-0.1,0-0.3,0-0.4,0c-0.1,0-0.2,0-0.3,0
	C14.3,21.6,14.3,21.6,14.2,21.6z"/>
<path class="st9" d="M14.4,21.6c0.1-0.1,0.2-0.1,0.3,0C14.6,21.6,14.5,21.6,14.4,21.6z"/>
<path class="st9" d="M15.2,21.6c0.1-0.1,0.2-0.1,0.3,0C15.4,21.6,15.3,21.6,15.2,21.6z"/>
<path class="st10" d="M24.9,11.9c-0.1-0.1-0.1-0.2,0-0.3C24.9,11.7,24.9,11.8,24.9,11.9z"/>
<path class="st10" d="M24.9,12.6c-0.1-0.1-0.1-0.2,0-0.3C24.9,12.4,24.9,12.5,24.9,12.6z"/>
<path class="st3" d="M19.6,19.8c-0.2-0.3-0.5-0.6-0.7-0.9c0,0,0-0.1,0-0.1c0.1-0.2-0.1-0.4-0.2-0.6c-0.2-0.3-0.2-0.7-0.1-1
	c0-0.1,0-0.2,0-0.4c-0.1-0.3-0.1-0.5,0-0.8c0-0.1,0-0.2,0-0.3c-0.1-0.3-0.1-0.6,0-0.9c0-0.1,0-0.2,0-0.2c-0.1-0.3-0.1-0.6,0-0.9
	c0-0.1,0-0.2,0-0.3c0-0.1,0.1-0.3,0.1-0.4c0.4-0.9,0.5-1.9,0.5-2.8c0-0.1-0.1-0.2-0.1-0.3c-0.4-0.4-0.8-0.8-1.1-1.2
	c-0.1-0.2-0.2-0.3-0.3-0.5c0,0,0-0.1-0.1-0.1c0,0-0.1,0.1-0.1,0.1c-0.2,0.3-0.3,0.6-0.6,0.9c-0.4,0.6-1,1-1.6,1.3
	c-0.9,0.5-1.8,0.7-2.7,0.6c-0.5,0-1-0.1-1.5-0.3c-0.2-0.1-0.2-0.1-0.2,0.2c0,0.7,0.2,1.4,0.4,2c0.1,0.1,0.1,0.3,0.1,0.4
	c0,0.1,0,0.2,0,0.3c0.1,0.3,0.1,0.6,0,0.9c0,0.1,0,0.2,0,0.3c0.1,0.2,0.1,0.5,0,0.7c-0.1,0.2,0,0.4,0,0.6c0,0.2,0,0.3,0,0.5
	c-0.1,0.2,0,0.4,0,0.6c0.1,0.4,0,0.7-0.2,1c-0.1,0.1-0.1,0.2-0.1,0.3c0,0.1,0,0.1,0,0.2c-0.3,0.3-0.5,0.6-0.7,0.9c0,0-0.1,0-0.1,0
	c-0.1,0-0.1,0-0.1-0.1c0.1-0.3,0.2-0.6,0.3-1c0-0.1,0-0.1,0-0.2c-0.3-0.3-0.4-0.7-0.3-1.1c0-0.2,0.1-0.4,0-0.6c0-0.1-0.1-0.3,0-0.5
	c0.1-0.3,0.1-0.5,0-0.8c0-0.1,0-0.2,0-0.3c0.1-0.3,0.1-0.5,0-0.8c0-0.1,0-0.2,0-0.3c0.1-0.3,0.1-0.5,0-0.8c0-0.1,0-0.2,0-0.3
	c0.1-0.3,0.1-0.5,0-0.8c0-0.1,0-0.2,0-0.3c0.1-0.3,0.1-0.5,0-0.8c0-0.1,0-0.2,0-0.3c0.1-0.3,0-0.6,0-0.8c0-0.7-0.2-1.3-0.2-2
	c0.1-1.3,0.6-2.4,1.5-3.4c1-1,2.3-1.5,3.8-1.4c2.2,0.1,4.1,1.7,4.6,3.9c0.2,0.8,0.2,1.5,0,2.3c0,0.1,0,0.2,0,0.3
	c0.1,0.3-0.1,0.6,0,0.9c0.1,0.3,0.1,0.6,0,0.9c0,0.1,0,0.1,0,0.2c0.1,0.3,0.1,0.6,0,0.9c0,0.1,0,0.2,0,0.2c0.1,0.3,0.1,0.6,0,0.9
	c0,0.1,0,0.2,0,0.3c0.1,0.3,0.1,0.6,0,0.9c0,0.1,0,0.2,0,0.3c0.1,0.3,0.1,0.6,0,0.9c0,0.1,0,0.2,0,0.3c0.1,0.3,0.1,0.6,0,0.9
	c0,0.1,0,0.2,0,0.3c0.1,0.5,0.1,0.9-0.3,1.3c-0.1,0.1,0,0.1,0,0.2c0.1,0.3,0.2,0.6,0.3,0.9C19.8,19.8,19.8,19.8,19.6,19.8z"/>
<path class="st11" d="M11.3,13.5c-0.1-0.4-0.3-0.8-0.4-1.2c-0.1-0.5-0.2-1.1-0.2-1.6c3,0.9,5.3,0,6.8-2.7c0.2,0.3,0.3,0.7,0.6,1
	c0.3,0.4,0.6,0.7,1,1c0.1,0,0.1,0.1,0.1,0.2c0,0.9,0,1.7-0.3,2.6c-0.1,0.2-0.2,0.5-0.3,0.7c0,0.2-0.1,0.4-0.2,0.6
	c-0.5,0.7-1.1,1.4-1.8,1.8c-0.1,0.1-0.2,0.1-0.3,0.2c-0.1,0-0.1,0.1-0.1,0.2c0.2,0.4,0.5,0.8,0.8,1.2c0.1,0.1,0.2,0.1,0.2,0.3
	c-0.1,0.2-0.3,0.3-0.5,0.4c-0.4,0.3-0.9,0.5-1.5,0.5c-0.1,0-0.2,0-0.2-0.1l0,0l0,0c-0.1,0.1-0.2,0.1-0.4,0.1
	c-0.6-0.1-1.1-0.3-1.5-0.6c-0.1-0.1-0.2-0.2-0.3-0.3c0-0.1,0-0.2,0.1-0.2c0.4-0.3,0.6-0.7,0.8-1.1c0.1-0.1,0.1-0.2-0.1-0.3
	c-0.8-0.4-1.4-1-1.9-1.7c-0.1-0.2-0.3-0.4-0.4-0.6C11.4,13.7,11.3,13.6,11.3,13.5z"/>
<path class="st7" d="M11.3,13.5c0.2,0.4,0.5,0.8,0.8,1.2c0.5,0.5,1,1,1.6,1.3c0.2,0.1,0.2,0.2,0.1,0.3c-0.2,0.5-0.5,0.9-1,1.3
	c0,0-0.1,0.1-0.1,0.1c0,0,0,0,0,0c-0.2,0.3-0.5,0.4-0.8,0.5c-0.4,0.2-0.7,0.5-1,0.7c0,0,0-0.1,0-0.1c-0.1-0.2-0.1-0.3,0.1-0.4
	c0.3-0.3,0.3-0.7,0.2-1.1c0-0.1,0-0.2,0-0.3c0.1-0.3,0.1-0.5,0-0.8c0-0.1,0-0.2,0-0.3c0.1-0.3,0.1-0.6,0-0.9c0-0.1,0-0.2,0-0.3
	c0.1-0.3,0.1-0.6,0-0.8C11.2,13.7,11.2,13.6,11.3,13.5z"/>
<path class="st7" d="M17.1,17.7c-0.3-0.3-0.6-0.6-0.8-0.9c-0.1-0.2-0.2-0.4-0.3-0.5c0-0.1,0-0.1,0.1-0.2c1.1-0.5,1.8-1.4,2.4-2.4
	c0,0,0-0.1,0.1-0.1c0.1,0.1,0.1,0.2,0,0.4c-0.1,0.3-0.1,0.5,0,0.8c0,0.1,0,0.2,0,0.3c-0.1,0.3-0.1,0.6,0,0.9c0,0.1,0,0.1,0,0.2
	c-0.1,0.3-0.1,0.6,0,0.9c0,0.1,0,0.2,0,0.2c-0.1,0.5-0.1,0.9,0.3,1.3c0,0,0.1,0.1,0,0.1c0,0.1-0.1,0.2-0.1,0.3
	c-0.3-0.3-0.6-0.5-1-0.7C17.7,18.2,17.2,17.9,17.1,17.7z"/>
<path class="st12" d="M12,18.2c0.3-0.2,0.5-0.3,0.8-0.5c0.6,0.6,1.3,0.9,2.1,0.9c-0.6,0.9-1.7,0.9-2.4,0.2
	C12.4,18.6,12.2,18.4,12,18.2z"/>
<path class="st12" d="M17.1,17.7c0.3,0.2,0.5,0.3,0.8,0.5c-0.3,0.3-0.6,0.7-1,0.9c-0.7,0.3-1.6,0.1-1.9-0.5
	C15.8,18.5,16.5,18.3,17.1,17.7z"/>
<g>
	<path class="st13" d="M29.5,18.3c-0.1,0-0.2,0-0.3,0C29.2,18.3,29.3,18.2,29.5,18.3z"/>
	<path class="st14" d="M29.9,18.2c-0.1,0.1-0.2,0-0.3,0C29.6,18.2,29.7,18.3,29.9,18.2z"/>
	<g>
		<path class="st15" d="M29.5,22.3c-5.8,0-10.5-4.7-10.5-10.5S23.7,1.3,29.5,1.3C35.3,1.3,40,6,40,11.8S35.3,22.3,29.5,22.3z"/>
		<path class="st16" d="M29.5,2.3c5.3,0,9.5,4.3,9.5,9.5s-4.3,9.5-9.5,9.5s-9.5-4.3-9.5-9.5S24.2,2.3,29.5,2.3 M29.5,0.3
			c-6.4,0-11.5,5.2-11.5,11.5s5.2,11.5,11.5,11.5S41,18.1,41,11.8S35.8,0.3,29.5,0.3L29.5,0.3z"/>
	</g>
	<path class="st17" d="M24.6,19.9c-0.7-0.4-1.3-0.9-1.9-1.5c-0.2-0.2-0.4-0.4-0.6-0.7c0.1-1.1,0.4-2.2,0.8-3.3
		c0.4-1.3,0.7-2.7,0.9-4c0.2-1.1,0.3-2.2,0.6-3.2c0.3-1.2,0.9-2.1,2-2.8c0.3-0.2,0.6-0.3,1-0.3c0,0,0.1,0,0.1,0
		c0.3,0.2,0.4,0,0.6-0.2c0.3-0.3,0.8-0.4,1.2-0.4c2.2-0.1,4.2,1.3,4.8,3.7c0.1,0.6,0.2,1.1,0.3,1.7c0.1,0.8,0.4,1.5,0.6,2.2
		c0.2,0.6,0.3,1.2,0.3,1.8c0,0.5,0,0.9,0.1,1.4c0.1,0.3,0.2,0.7,0.5,0.9c0.4,0.4,0.5,1,0.5,1.5c0,0.8-0.2,1.6-0.5,2.3
		c-0.2,0.2-0.4,0.4-0.6,0.5c-0.2,0.2-0.4,0.3-0.7,0.4c-0.2-0.2-0.3-0.4-0.4-0.6c-0.4-0.6-0.9-1.1-1.5-1.5c-0.3-0.2-0.6-0.3-0.8-0.5
		c-0.5-0.4-0.8-0.8-1-1.4c-0.1-0.2-0.1-0.3,0.2-0.4c0.6-0.3,1.1-0.7,1.5-1.2c0.1-0.1,0.1-0.2,0.1-0.3c0-0.5,0.1-1.1,0.4-1.5
		c0.2-0.4,0.4-0.8,0.5-1.2c0.2-0.6,0.2-1.3,0-1.9c-0.1-0.4-0.3-0.6-0.6-0.8c-0.4-0.2-0.9-0.4-1.3-0.6c-0.7-0.4-1.4-0.9-2.1-1.4
		C28.8,6.2,28.3,6,27.8,6c-0.6,0-1,0.2-1.4,0.7c-0.3,0.5-0.5,1-0.6,1.5c-0.3,0.9-0.3,1.8-0.3,2.8c0,0.8,0.2,1.5,0.4,2.2
		c0.2,0.5,0.5,0.9,0.9,1.3c0.4,0.5,0.9,0.9,1.5,1.2c0.2,0.1,0.2,0.1,0.1,0.3c-0.2,0.6-0.6,1-1.1,1.4c-0.2,0.2-0.5,0.3-0.8,0.5
		c-0.6,0.4-1.1,0.9-1.6,1.5c-0.1,0.1-0.2,0.3-0.3,0.4C24.7,19.9,24.7,19.9,24.6,19.9z"/>
	<path class="st18" d="M32.4,17.9c0.8,0.5,1.5,1.2,1.9,2c-0.4,0.3-0.8,0.4-1.2,0.6c-1.3,0.6-2.7,0.8-4.1,0.7c-1.6-0.1-3-0.5-4.4-1.3
		c0,0,0,0-0.1,0c0.5-0.8,1.1-1.6,2-2.1c0.2,0.1,0.3,0.3,0.4,0.4c0.3,0.3,0.6,0.6,1,0.6c0.5,0.1,0.9-0.1,1.3-0.5
		c0.1-0.1,0.1-0.1,0.2-0.1c0,0,0,0,0.1,0c0.1,0.1,0.2,0.2,0.3,0.2c0.5,0.5,1.4,0.5,1.9,0c0.2-0.2,0.4-0.4,0.5-0.5
		C32.3,18,32.3,17.9,32.4,17.9z"/>
	<path class="st19" d="M29.5,18.3L29.5,18.3L29.5,18.3C29.5,18.3,29.5,18.3,29.5,18.3c-0.2,0-0.3,0-0.4,0c-0.7-0.1-1.2-0.3-1.7-0.8
		c0,0-0.1-0.1-0.1-0.1c0.5-0.4,0.8-0.9,1.1-1.4c0-0.1,0-0.2-0.1-0.2c-1-0.5-1.7-1.2-2.2-2.1c-0.3-0.5-0.4-1-0.5-1.6
		c-0.3-1.5-0.2-2.9,0.3-4.3c0.2-0.5,0.4-1,0.7-1.4c0.3-0.3,0.6-0.4,1-0.4c0.6,0,1.1,0.2,1.5,0.5c0.6,0.5,1.3,1,2.1,1.4
		c0.4,0.2,0.9,0.4,1.3,0.6c0.4,0.2,0.6,0.6,0.7,1c0.1,0.9,0.1,1.7-0.3,2.5c-0.2,0.5-0.5,1.1-0.6,1.7c0,0.1,0,0.2,0,0.2
		c0,0.3-0.1,0.5-0.3,0.7c-0.4,0.4-0.9,0.8-1.5,1.1c-0.1,0.1-0.1,0.1-0.1,0.2c0.2,0.5,0.5,0.9,0.9,1.3c0,0,0.1,0.1,0.1,0.1
		c0,0.1,0,0.1-0.1,0.1c-0.5,0.4-1,0.7-1.7,0.8C29.8,18.3,29.6,18.3,29.5,18.3C29.5,18.3,29.5,18.3,29.5,18.3z"/>
	<path class="st12" d="M27.4,17.4c0.4,0.4,0.9,0.7,1.5,0.8c0.1,0,0.2,0,0.2,0c0.1,0,0.2,0,0.3,0c0,0,0,0,0,0
		c-0.5,0.7-1.3,0.9-2.1,0.5c-0.3-0.2-0.6-0.5-0.9-0.9C26.8,17.7,27.1,17.5,27.4,17.4z"/>
	<path class="st12" d="M29.9,18.2c0.5,0,1-0.3,1.4-0.6c0.1-0.1,0.2-0.2,0.4-0.3c0.3,0.2,0.5,0.3,0.8,0.5c-0.2,0.2-0.5,0.5-0.7,0.7
		c-0.7,0.6-1.8,0.4-2.2-0.4c0,0,0,0,0,0C29.6,18.2,29.8,18.3,29.9,18.2z"/>
</g>
</svg>
