<?xml version="1.0" encoding="utf-8"?>
<!-- Generator: Adobe Illustrator 24.0.0, SVG Export Plug-In . SVG Version: 6.00 Build 0)  -->
<svg version="1.1" id="Layer_1" xmlns="http://www.w3.org/2000/svg" xmlns:xlink="http://www.w3.org/1999/xlink" x="0px" y="0px"
	 viewBox="0 0 44.4 24" style="enable-background:new 0 0 44.4 24;" xml:space="preserve">
<style type="text/css">
	.st0{fill:#DDE3EB;}
	.st1{fill:#F0F3F6;}
	.st2{fill:#C3E290;}
	.st3{fill:#E0844F;}
	.st4{fill:#FFFFFF;}
	.st5{fill:#5AB6B1;}
	.st6{fill:#141720;}
	.st7{fill:#EBC09B;}
	.st8{fill:#B7DC78;}
	.st9{fill:#9C78DB;}
	.st10{fill:#A996CA;}
	.st11{fill:#DEB18A;}
	.st12{fill:#B6DB78;}
	.st13{fill:#E6EBF1;}
</style>
<path class="st0" d="M30.1,12.5c-0.2,0.1-0.3,0-0.4,0l0,0l0,0C29.8,12.5,30,12.5,30.1,12.5z"/>
<path class="st0" d="M30.9,12.5c-0.2,0-0.3,0-0.4,0C30.6,12.5,30.7,12.5,30.9,12.5L30.9,12.5L30.9,12.5z"/>
<path class="st0" d="M41.5,12.2c0-0.2,0-0.3,0-0.5C41.5,11.9,41.5,12.1,41.5,12.2C41.5,12.3,41.5,12.2,41.5,12.2z"/>
<path class="st1" d="M29.7,12.5L29.7,12.5c-0.1,0-0.1,0-0.2,0l0,0C29.6,12.5,29.7,12.5,29.7,12.5z"/>
<path class="st1" d="M30.9,12.5L30.9,12.5c0.1,0,0.1,0,0.2,0l0,0C31,12.5,30.9,12.5,30.9,12.5z"/>
<path class="st1" d="M41.5,11.9L41.5,11.9c0,0.1,0,0.1,0,0.2l0,0C41.5,12,41.5,12,41.5,11.9z"/>
<path class="st0" d="M41.5,12.2c-0.1-0.2,0-0.3,0-0.5l0,0C41.5,11.9,41.5,12.1,41.5,12.2z"/>
<path class="st1" d="M41.5,12.1L41.5,12.1L41.5,12.1c0-0.1,0-0.1,0-0.2l0,0C41.5,12,41.5,12,41.5,12.1z"/>
<path class="st2" d="M40.5,11.7c-0.1-0.1-0.1-0.2,0-0.3C40.5,11.5,40.5,11.6,40.5,11.7z"/>
<path class="st2" d="M40.5,12.4c-0.1-0.1-0.1-0.2,0-0.3C40.5,12.2,40.5,12.3,40.5,12.4z"/>
<g>
	<g>
		<path class="st3" d="M15.4,23.1c-5.8,0-10.6-4.8-10.6-10.6S9.6,2,15.4,2C21.3,2,26,6.7,26,12.5S21.3,23.1,15.4,23.1z"/>
		<path class="st4" d="M15.4,3c5.3,0,9.6,4.3,9.6,9.6s-4.3,9.6-9.6,9.6s-9.6-4.3-9.6-9.6S10.1,3,15.4,3 M15.4,1
			C9.1,1,3.9,6.2,3.9,12.5s5.2,11.6,11.6,11.6S27,18.9,27,12.5S21.8,1,15.4,1L15.4,1z"/>
	</g>
	<g>
		<path class="st5" d="M14.1,16.7c0.2,0.1,0.4,0.3,0.6,0.3c0.7,0.3,1.3,0.2,1.9-0.2c0.1-0.1,0.2-0.1,0.3-0.2
			c0.1,0.1,0.2,0.2,0.2,0.3c0,0.3,0.1,0.5,0,0.9c0,0.1,0,0.2,0.1,0.2c0.3,0.3,0.5,0.5,0.9,0.7c0.9,0.5,1.6,1.2,2.1,2.1
			c-0.6,0.4-1.3,0.7-2.1,1c-1.1,0.3-2.3,0.4-3.4,0.3c-1.3-0.1-2.5-0.5-3.7-1.2l0,0c0.5-0.9,1.2-1.6,2.1-2.1c0.3-0.2,0.6-0.4,0.9-0.7
			C14,18,14,18,14,17.8c-0.1-0.3-0.1-0.6,0-1C13.9,16.9,14,16.8,14.1,16.7z"/>
		<path class="st6" d="M12.8,15.6c-0.3-0.1-0.5-0.3-0.8-0.5c-1.1-1-1.7-2.3-1.9-3.7c-0.1-1.6,0.3-2.9,1.1-4.1
			c0.8-1.1,1.9-1.8,3.3-2.1c1.5-0.3,2.9,0.1,4.1,1c1.6,1.3,2.2,3,2.1,4.9c-0.1,1.8-0.9,3.3-2.4,4.4c-0.1,0.1-0.2,0.2-0.3,0.2
			c-0.1-0.1,0-0.2,0.1-0.3c0.2-0.3,0.4-0.5,0.6-0.9c0.3-0.6,0.6-1.3,0.7-2.1c0.1-0.5,0-1.1,0-1.7c0-0.2-0.1-0.2-0.2-0.2
			s-0.1,0-0.2,0c-2.4,0-4.8,0-7.1,0c-0.3,0-0.3,0-0.3,0.3c0,0.6,0,1.1,0.1,1.7c0.2,1,0.5,1.9,1.2,2.7C12.7,15.5,12.8,15.6,12.8,15.6
			z"/>
		<path class="st7" d="M12.8,15.6c-0.2-0.2-0.3-0.4-0.4-0.6c-0.6-1-1-1.9-1-3.1c0-0.4,0-0.9,0-1.2c0-0.1,0-0.2,0.2-0.2
			c2.6,0,5.1,0,7.8,0c0.1,0,0.2,0,0.2,0.1c0,0.7,0.1,1.5-0.1,2.2c-0.2,1-0.6,1.9-1.3,2.7c0,0,0,0,0,0.1c-0.3,0.3-0.8,0.7-1.2,1
			c0,0.2-0.2,0.2-0.3,0.3c-0.9,0.4-1.7,0.3-2.4-0.1c-0.1,0-0.1-0.1-0.1-0.2C13.5,16.3,13.2,16,12.8,15.6z"/>
	</g>
</g>
<g>
	<g>
		<path class="st8" d="M29,23.1c-5.8,0-10.6-4.8-10.6-10.6S23.1,2,29,2s10.6,4.8,10.6,10.6S34.8,23.1,29,23.1z"/>
		<path class="st4" d="M29,3c5.3,0,9.6,4.3,9.6,9.6s-4.3,9.6-9.6,9.6s-9.6-4.3-9.6-9.6S23.7,3,29,3 M29,1c-6.4,0-11.6,5.2-11.6,11.6
			S22.6,24.1,29,24.1s11.6-5.2,11.6-11.6S35.3,1,29,1L29,1z"/>
	</g>
	<path class="st9" d="M28.2,22.1c-0.3-0.1-0.4-0.1-0.7-0.1c-1.2-0.2-2.3-0.6-3.3-1.2c0,0,0,0-0.1-0.1c0.1-0.2,0.2-0.3,0.3-0.4
		c-0.1-0.1,0-0.2,0.1-0.2c0.2-0.3,0.3-0.5,0.6-0.7c0.2-0.2,0.3-0.3,0.6-0.5c0.2-0.1,0.3-0.3,0.4-0.3c0.2,0.1,0.3,0.2,0.4,0.3
		c0.3,0.4,0.7,0.7,1.2,0.7c0.3,0,0.7-0.2,1-0.4c0.1-0.1,0.2-0.2,0.3-0.3c0,0,0,0,0.1,0c0.2,0.2,0.3,0.3,0.6,0.4
		c0.5,0.3,1.3,0.1,1.7-0.3c0.2-0.2,0.3-0.3,0.5-0.5c0-0.1,0.1-0.1,0.2-0.1c0.2,0,0.3,0.1,0.4,0.3c0.2,0.2,0.4,0.3,0.6,0.5
		c0.3,0.2,0.4,0.4,0.6,0.7c0,0.1,0.1,0.1,0.1,0.2c0.1,0.2,0.2,0.3,0.3,0.4c0,0.1-0.1,0.2-0.2,0.2c-0.4,0.3-0.9,0.4-1.3,0.6
		c-0.6,0.2-1.1,0.4-1.7,0.4c-0.3,0-0.6,0-0.9,0.1c-0.1,0-0.2,0-0.3,0c-0.1,0-0.2,0-0.3,0c-0.2,0-0.3,0-0.4,0c-0.1,0-0.3,0-0.3,0
		C28.3,22.1,28.3,22.1,28.2,22.1z"/>
	<path class="st10" d="M28.4,22.1c0.1-0.1,0.3-0.1,0.3,0C28.6,22.1,28.5,22.1,28.4,22.1z"/>
	<path class="st10" d="M29.2,22.1c0.1-0.1,0.2-0.1,0.3,0C29.4,22.1,29.3,22.1,29.2,22.1z"/>
	<path class="st6" d="M33.6,20.3c-0.3-0.3-0.4-0.6-0.7-0.9v-0.1c0.1-0.3-0.1-0.3-0.2-0.6c-0.2-0.3-0.2-0.7-0.1-1c0-0.1,0-0.3,0-0.3
		c-0.1-0.3-0.1-0.5,0-0.8c0-0.1,0-0.2,0-0.3c-0.1-0.3-0.1-0.6,0-0.9c0-0.1,0-0.2,0-0.3c-0.1-0.3-0.1-0.6,0-1c0-0.1,0-0.2,0-0.3
		c0-0.2,0.1-0.3,0.1-0.3c0.4-0.9,0.5-1.8,0.4-2.9c0-0.1-0.1-0.2-0.2-0.3c-0.4-0.3-0.8-0.8-1.1-1.2c-0.1-0.2-0.2-0.3-0.3-0.5
		c0,0,0-0.1-0.1-0.1s-0.1,0.1-0.1,0.1c-0.2,0.3-0.3,0.6-0.6,0.9c-0.4,0.5-1,1-1.6,1.4c-0.9,0.4-1.7,0.7-2.8,0.6
		c-0.5,0-1-0.1-1.6-0.3c-0.2-0.1-0.3-0.1-0.3,0.2c0,0.7,0.2,1.4,0.4,2.1c0.1,0.1,0.2,0.3,0.1,0.4c-0.1,0.1,0,0.3,0,0.3
		c0.1,0.3,0.1,0.6,0,0.9c0,0.1,0,0.2,0,0.3c0.1,0.3,0.1,0.4,0,0.7c-0.1,0.2,0,0.4,0,0.6s0.1,0.3,0,0.5c-0.1,0.3,0,0.4,0,0.6
		c0.1,0.3,0,0.7-0.2,1c-0.1,0.1-0.2,0.2-0.1,0.3c0,0.1,0,0.1,0,0.2c-0.3,0.3-0.5,0.5-0.7,0.9h-0.1c-0.1,0-0.2,0-0.1-0.2
		c0.1-0.3,0.2-0.6,0.3-1c0-0.1,0.1-0.1,0-0.2c-0.3-0.3-0.3-0.7-0.3-1.1c0-0.2,0.1-0.4,0-0.6c0-0.2-0.1-0.3,0-0.4
		c0.1-0.3,0.1-0.5,0-0.8c0-0.1,0-0.3,0-0.3c0.1-0.3,0.1-0.5,0-0.8c0-0.1,0-0.3,0-0.3c0.1-0.3,0.1-0.5,0-0.8c0-0.1,0-0.3,0-0.3
		c0.1-0.3,0.1-0.5,0-0.8c0-0.1,0-0.3,0-0.3c0.1-0.3,0.1-0.5,0-0.8c0-0.1,0-0.3,0-0.3c0.1-0.3,0-0.6,0-0.9c0-0.7-0.2-1.3-0.2-2
		c0.1-1.3,0.5-2.4,1.5-3.4c1-1,2.4-1.6,3.8-1.5c2.3,0.1,4.1,1.7,4.6,3.9c0.2,0.8,0.2,1.5,0,2.3c0,0.1-0.1,0.2,0,0.3
		c0.1,0.3-0.2,0.6-0.1,1c0.1,0.3,0.1,0.6,0,1c0,0.1,0,0.1,0,0.2c0.1,0.3,0.1,0.6,0,1c0,0.1,0,0.2,0,0.3c0.1,0.3,0.1,0.6,0,0.9
		c0,0.1,0,0.2,0,0.3c0.1,0.3,0.1,0.6,0,0.9c0,0.1,0,0.2,0,0.3c0.1,0.3,0.1,0.6,0,0.9c0,0.1,0,0.2,0,0.3c0.1,0.3,0.1,0.6,0,0.9
		c0,0.1,0,0.2,0,0.3c0.2,0.4,0.1,0.9-0.3,1.3c-0.1,0.1,0,0.1,0,0.2c0.1,0.3,0.2,0.6,0.3,0.9C33.8,20.3,33.8,20.3,33.6,20.3z"/>
	<path class="st11" d="M25.3,14c-0.2-0.3-0.3-0.8-0.4-1.1c-0.1-0.5-0.2-1-0.2-1.6c3.1,1,5.3,0,6.9-2.8c0.2,0.3,0.3,0.7,0.6,1
		s0.6,0.7,1,1c0.1,0.1,0.1,0.1,0.1,0.2c0,0.9,0,1.7-0.3,2.6c-0.1,0.3-0.2,0.5-0.3,0.8c0,0.3-0.2,0.4-0.3,0.6c-0.4,0.7-1,1.4-1.8,1.8
		c-0.1,0.1-0.2,0.1-0.3,0.2c-0.1,0.1-0.1,0.1-0.1,0.2c0.2,0.4,0.4,0.9,0.8,1.1c0.1,0.1,0.2,0.2,0.2,0.3c-0.1,0.2-0.3,0.3-0.4,0.4
		c-0.4,0.3-1,0.4-1.5,0.5c-0.1,0-0.2,0-0.3-0.1l0,0l0,0c-0.1,0.1-0.3,0.1-0.3,0.1c-0.5-0.1-1-0.3-1.5-0.6c-0.1-0.1-0.2-0.2-0.3-0.3
		c0-0.1,0.1-0.2,0.1-0.3c0.3-0.3,0.6-0.7,0.9-1.1c0.1-0.1,0.1-0.2-0.1-0.3c-0.8-0.4-1.4-1-1.9-1.7c-0.2-0.2-0.3-0.3-0.4-0.6
		C25.3,14.2,25.3,14.1,25.3,14z"/>
	<path class="st12" d="M25.3,14c0.3,0.4,0.5,0.8,0.8,1.1c0.4,0.5,1,1,1.7,1.3c0.2,0.1,0.2,0.2,0.1,0.3c-0.3,0.5-0.5,1-1,1.3
		l-0.1,0.1l0,0c-0.2,0.3-0.4,0.4-0.8,0.4c-0.3,0.2-0.7,0.4-1,0.8v-0.1c-0.1-0.2-0.1-0.3,0.1-0.4c0.3-0.3,0.3-0.7,0.2-1.1
		c0-0.1-0.1-0.3,0-0.3c0.1-0.3,0.1-0.5,0-0.8c0-0.1,0-0.2,0-0.3c0.1-0.3,0.1-0.6,0-0.9c0-0.1,0-0.2,0-0.3c0.1-0.3,0.1-0.5,0-0.9
		C25.2,14.3,25.2,14.1,25.3,14z"/>
	<path class="st12" d="M31.1,18.2c-0.3-0.3-0.6-0.5-0.8-0.9c-0.1-0.2-0.2-0.3-0.3-0.5c0-0.1,0-0.2,0.1-0.2c1-0.5,1.8-1.4,2.4-2.4
		l0.1-0.1c0.1,0.1,0.1,0.3,0,0.3c-0.1,0.3-0.1,0.5,0,0.8c0,0.1,0,0.2,0,0.3c-0.1,0.3-0.1,0.6,0,0.9c0,0.1,0,0.2,0,0.3
		c-0.1,0.3-0.1,0.6,0,0.9c0,0.1,0,0.2,0,0.3c-0.2,0.4-0.1,0.9,0.3,1.3c0.1,0.1,0.1,0.1,0,0.2c0,0.1-0.1,0.2-0.1,0.3
		c-0.3-0.3-0.6-0.5-1-0.8C31.7,18.7,31.2,18.4,31.1,18.2z"/>
	<path class="st13" d="M26,18.7c0.3-0.2,0.5-0.3,0.8-0.5c0.6,0.6,1.3,0.9,2.2,0.9c-0.6,0.9-1.7,1-2.4,0.2
		C26.3,19.1,26.2,18.9,26,18.7z"/>
	<path class="st13" d="M31.1,18.2c0.3,0.2,0.5,0.3,0.8,0.5c-0.3,0.3-0.6,0.7-1,1c-0.7,0.3-1.6,0.1-1.9-0.5
		C29.8,19.1,30.5,18.8,31.1,18.2z"/>
</g>
</svg>
