<?xml version="1.0" encoding="utf-8"?>
<!-- Generator: Adobe Illustrator 24.0.0, SVG Export Plug-In . SVG Version: 6.00 Build 0)  -->
<svg version="1.1" id="Layer_1" xmlns="http://www.w3.org/2000/svg" xmlns:xlink="http://www.w3.org/1999/xlink" x="0px" y="0px"
	 viewBox="0 0 62 24" style="enable-background:new 0 0 62 24;" xml:space="preserve">
<style type="text/css">
	.st0{fill:#DDE3EB;}
	.st1{fill:#F0F3F6;}
	.st2{fill:#C3E290;}
	.st3{fill:#DDBDD3;}
	.st4{fill:#DEBDD0;}
	.st5{fill:#D4DCE6;}
	.st6{fill:#FDFEFF;}
	.st7{fill:#421800;}
	.st8{fill:#B24FC4;}
	.st9{fill:#EFCFB3;}
	.st10{fill:#E6EBF1;}
	.st11{fill:#B7DC78;}
	.st12{fill:#FFFFFF;}
	.st13{fill:#141720;}
	.st14{fill:#9C78DB;}
	.st15{fill:#DEB18A;}
	.st16{fill:#B6DB78;}
	.st17{fill:#E0844F;}
	.st18{fill:#5AB6B1;}
	.st19{fill:#EBC09B;}
</style>
<path class="st0" d="M30.8,1c-0.2,0.1-0.3,0-0.5,0l0,0l0,0C30.5,1,30.7,1,30.8,1z"/>
<path class="st0" d="M31.7,1c-0.2,0-0.3,0-0.5,0C31.4,1,31.5,1,31.7,1L31.7,1L31.7,1z"/>
<path class="st0" d="M45,12.1c0-0.2,0-0.2,0-0.4C45,11.9,45,11.9,45,12.1L45,12.1z"/>
<path class="st1" d="M30.4,1L30.4,1c-0.1,0-0.1,0-0.2,0l0,0C30.2,1,30.3,1,30.4,1z"/>
<path class="st1" d="M31.7,1L31.7,1c0.1,0,0.1,0,0.2,0l0,0C31.8,1,31.7,1,31.7,1z"/>
<path class="st1" d="M45,11.8L45,11.8c0,0.1,0,0.1,0,0.2l0,0C45,12,45,11.9,45,11.8z"/>
<path class="st0" d="M45,12.1c-0.1-0.2,0-0.2,0-0.4l0,0C45,11.9,45,11.9,45,12.1z"/>
<path class="st1" d="M45,12L45,12L45,12c0-0.1,0-0.1,0-0.2l0,0C45,11.8,45,11.9,45,12z"/>
<path class="st2" d="M46.4,1c-0.1,0.1-0.2,0.1-0.3,0C46.2,1,46.3,1,46.4,1z"/>
<path class="st2" d="M47.1,1c-0.1,0.1-0.2,0.1-0.3,0C46.9,1,47,1,47.1,1z"/>
<path class="st2" d="M39.9,11.8c0.1,0.1,0.1,0.2,0,0.2C39.9,11.9,39.9,11.9,39.9,11.8z"/>
<path class="st2" d="M39.9,11.8c0.1,0.1,0.1,0.2,0,0.2C39.9,11.9,39.9,11.9,39.9,11.8z"/>
<g>
	<path class="st3" d="M20.1,17.4c-0.1,0-0.2,0-0.3,0C19.9,17.3,20,17.3,20.1,17.4z"/>
	<path class="st4" d="M20.4,17.3c-0.1,0.1-0.2,0-0.3,0C20.2,17.3,20.3,17.3,20.4,17.3z"/>
	<g>
		<path class="st5" d="M20.1,20.9c-4.9,0-8.9-4-8.9-9c0-5,4-9,8.9-9s8.9,4,8.9,9C29,16.9,25,20.9,20.1,20.9z"/>
		<path class="st6" d="M20.1,3.9c4.4,0,7.9,3.6,7.9,8s-3.5,8-7.9,8s-7.9-3.6-7.9-8S15.8,3.9,20.1,3.9 M20.1,1.9
			c-5.5,0-9.9,4.5-9.9,10s4.4,10,9.9,10s9.9-4.5,9.9-10S25.6,1.9,20.1,1.9L20.1,1.9z"/>
	</g>
	<path class="st7" d="M16.1,18.8c-0.6-0.3-1.1-0.8-1.6-1.3c-0.2-0.2-0.3-0.4-0.5-0.5c0.1-0.9,0.4-1.9,0.6-2.8
		c0.3-1.1,0.5-2.2,0.7-3.4c0.1-0.9,0.3-1.8,0.5-2.7c0.3-1,0.8-1.8,1.6-2.4c0.2-0.2,0.5-0.3,0.8-0.3c0,0,0.1,0,0.1,0
		c0.2,0.1,0.4,0,0.5-0.2c0.3-0.2,0.7-0.3,1-0.3c1.8-0.1,3.5,1.1,4,3.1C24,8.6,24.1,9,24.1,9.5c0.1,0.6,0.3,1.2,0.5,1.8
		c0.2,0.5,0.2,1,0.2,1.5c0,0.4,0,0.8,0.1,1.2c0.1,0.3,0.2,0.6,0.4,0.8c0.3,0.4,0.4,0.8,0.4,1.3c0,0.7-0.2,1.3-0.5,1.9
		c-0.1,0.2-0.3,0.3-0.5,0.5c-0.2,0.1-0.4,0.3-0.6,0.4c-0.1-0.1-0.2-0.3-0.3-0.5c-0.3-0.5-0.8-0.9-1.3-1.2c-0.2-0.1-0.5-0.3-0.7-0.5
		c-0.4-0.3-0.7-0.7-0.8-1.1c-0.1-0.2-0.1-0.2,0.1-0.3c0.5-0.2,0.9-0.6,1.2-1c0.1-0.1,0.1-0.2,0.1-0.3c0-0.5,0.1-0.9,0.3-1.3
		c0.1-0.3,0.3-0.7,0.4-1c0.2-0.5,0.1-1.1,0-1.6c-0.1-0.3-0.2-0.5-0.5-0.7c-0.4-0.2-0.7-0.3-1.1-0.5C21,8.4,20.4,8,19.9,7.5
		c-0.3-0.3-0.7-0.4-1.1-0.5c-0.5,0-0.9,0.2-1.1,0.6c-0.2,0.4-0.4,0.8-0.5,1.3c-0.2,0.8-0.3,1.5-0.2,2.3c0,0.6,0.2,1.3,0.4,1.9
		c0.1,0.4,0.4,0.8,0.7,1.1c0.4,0.4,0.8,0.7,1.2,1c0.1,0.1,0.2,0.1,0.1,0.3c-0.2,0.5-0.5,0.9-0.9,1.2c-0.2,0.2-0.4,0.3-0.7,0.4
		c-0.5,0.3-0.9,0.7-1.3,1.2c-0.1,0.1-0.2,0.2-0.3,0.4C16.2,18.7,16.2,18.7,16.1,18.8z"/>
	<path class="st8" d="M22.6,17c0.7,0.4,1.2,1,1.6,1.7c-0.3,0.2-0.6,0.4-1,0.5c-1.1,0.5-2.2,0.7-3.4,0.6c-1.3-0.1-2.5-0.4-3.6-1.1
		c0,0,0,0,0,0c0.4-0.7,0.9-1.3,1.6-1.7c0.2,0.1,0.3,0.2,0.4,0.4c0.2,0.3,0.5,0.5,0.9,0.5c0.4,0,0.8-0.1,1-0.4c0,0,0.1-0.1,0.1-0.1
		c0,0,0,0,0,0c0.1,0.1,0.1,0.1,0.2,0.2c0.4,0.4,1.2,0.4,1.6,0c0.2-0.1,0.3-0.3,0.4-0.5C22.5,17.1,22.5,17,22.6,17z"/>
	<path class="st9" d="M20.2,17.4L20.2,17.4L20.2,17.4C20.1,17.4,20.1,17.4,20.2,17.4c-0.2,0-0.2,0-0.3,0c-0.5,0-1-0.3-1.4-0.7
		c0,0-0.1-0.1-0.1-0.1c0.4-0.3,0.7-0.7,0.9-1.2c0-0.1,0-0.1-0.1-0.2c-0.8-0.4-1.4-1-1.8-1.8c-0.2-0.4-0.3-0.9-0.4-1.3
		c-0.2-1.2-0.2-2.4,0.2-3.6c0.1-0.4,0.3-0.9,0.6-1.2C18,7.1,18.3,7,18.6,7c0.5,0,0.9,0.2,1.2,0.5c0.5,0.4,1.1,0.9,1.7,1.2
		c0.4,0.2,0.7,0.4,1.1,0.5c0.4,0.2,0.5,0.5,0.6,0.8c0.1,0.7,0,1.4-0.3,2.1c-0.2,0.5-0.4,0.9-0.5,1.4c0,0.1,0,0.1,0,0.2
		c0,0.2-0.1,0.4-0.2,0.6c-0.4,0.4-0.8,0.7-1.2,0.9c-0.1,0-0.1,0.1-0.1,0.2c0.2,0.4,0.4,0.8,0.8,1.1c0,0,0.1,0.1,0.1,0.1
		c0,0.1,0,0.1,0,0.1c-0.4,0.4-0.9,0.6-1.4,0.7C20.3,17.4,20.3,17.4,20.2,17.4C20.2,17.4,20.2,17.4,20.2,17.4z"/>
	<path class="st10" d="M18.4,16.6c0.4,0.4,0.8,0.6,1.3,0.7c0.1,0,0.1,0,0.2,0c0.1,0,0.2,0,0.3,0c0,0,0,0,0,0
		c-0.4,0.6-1.1,0.8-1.7,0.4c-0.3-0.2-0.5-0.5-0.7-0.7C17.9,16.9,18.2,16.7,18.4,16.6z"/>
	<path class="st10" d="M20.4,17.3c0.4,0,0.8-0.2,1.2-0.5c0.1-0.1,0.2-0.2,0.3-0.2c0.2,0.1,0.5,0.3,0.7,0.4c-0.2,0.2-0.4,0.4-0.6,0.6
		c-0.5,0.5-1.5,0.3-1.8-0.3c0,0,0,0,0,0C20.2,17.3,20.3,17.4,20.4,17.3z"/>
</g>
<g>
	<g>
		<path class="st11" d="M31.2,20.8c-4.9,0-8.9-4-8.9-8.9c0-4.9,4-8.9,8.9-8.9s8.9,4,8.9,8.9C40.1,16.8,36.1,20.8,31.2,20.8z"/>
		<path class="st12" d="M31.2,3.9c4.4,0,7.9,3.6,7.9,7.9s-3.6,7.9-7.9,7.9s-7.9-3.6-7.9-7.9S26.8,3.9,31.2,3.9 M31.2,1.9
			c-5.5,0-9.9,4.5-9.9,9.9s4.5,9.9,9.9,9.9s9.9-4.5,9.9-9.9S36.6,1.9,31.2,1.9L31.2,1.9z"/>
	</g>
	<path class="st13" d="M27.3,18.3c-0.1,0-0.1,0-0.1,0c-0.1,0-0.1,0-0.1-0.1c0.1-0.3,0.1-0.6,0.2-0.8c0-0.1,0.1-0.1,0-0.1
		C27,17,27,16.7,27.1,16.4c0.1-0.2,0-0.4,0-0.6c0-0.1,0-0.1,0-0.2c0.1-0.2,0.1-0.4,0-0.7c-0.1-0.1,0-0.4,0.1-0.5c0-0.1,0-0.1,0-0.2
		c-0.1-0.2-0.1-0.5,0-0.8c0-0.1,0-0.1,0-0.2c-0.1-0.2-0.1-0.5,0-0.8c0-0.1,0-0.1,0-0.1c-0.1-0.2-0.1-0.5,0-0.8c0-0.1,0-0.1,0-0.1
		c-0.1-0.2-0.1-0.5,0-0.8c0-0.1,0-0.1,0-0.1C27,9.9,27.1,9.5,27,9c-0.1-1,0.1-2,0.7-2.9c0.7-0.9,1.5-1.5,2.6-1.7
		c2.2-0.4,4.4,0.9,4.9,3.2c0.1,0.7,0.1,1.2,0,1.9c0,0.1,0,0.2,0,0.3c0,0.4,0,0.8,0,1.2c0,0.2,0,0.4,0,0.7c0,0.4,0,0.8,0,1.2
		c0,0.2,0,0.4,0,0.7c0,0.4,0,0.8,0,1.2c0,0.2,0,0.4,0,0.7c0,0.4,0,0.8,0,1.2c0,0.2-0.1,0.4-0.2,0.6c-0.1,0.1-0.1,0.1,0,0.1
		c0.1,0.2,0.1,0.5,0.2,0.7s0.1,0.2-0.1,0.2c-0.1,0-0.1,0-0.1-0.1c-0.1-0.1-0.3-0.4-0.4-0.5c-0.1-0.1-0.1-0.1-0.1-0.1
		c0.1-0.2-0.1-0.4-0.1-0.5c-0.1-0.3-0.1-0.6-0.1-0.9c0-0.1,0-0.1,0-0.2c-0.1-0.2-0.1-0.4,0-0.7c0-0.1,0-0.1,0-0.2
		c-0.1-0.2-0.1-0.5,0-0.7c0-0.1,0-0.1,0-0.2c-0.1-0.3-0.1-0.5,0-0.8c0-0.1,0-0.1,0-0.2c0-0.1,0.1-0.2,0.1-0.3
		c0.4-0.7,0.4-1.5,0.4-2.4c0-0.1-0.1-0.1-0.1-0.2c-0.4-0.3-0.7-0.7-0.9-1c-0.1-0.1-0.1-0.3-0.2-0.4c0,0,0-0.1-0.1-0.1
		s-0.1,0.1-0.1,0.1c-0.1,0.3-0.3,0.5-0.5,0.7c-0.4,0.4-0.8,0.9-1.3,1.2c-0.7,0.4-1.5,0.6-2.3,0.5c-0.4,0-0.9-0.1-1.3-0.2
		c-0.1-0.1-0.2-0.1-0.2,0.1c0,0.6,0.1,1.2,0.4,1.7C28,12.9,28,13,28,13.2c-0.1,0.1,0,0.2,0,0.3c0.1,0.2,0.1,0.5,0,0.7
		c0,0.1,0,0.1,0,0.2c0.1,0.2,0.1,0.4,0,0.6c-0.1,0.2,0,0.4,0,0.6c0,0.1,0,0.2,0,0.4c-0.1,0.2-0.1,0.4,0,0.6c0.1,0.2,0,0.5-0.1,0.7
		c-0.1,0.1-0.1,0.3-0.1,0.5c0,0.1,0,0.1-0.1,0.1C27.5,18,27.3,18.2,27.3,18.3C27.5,18.3,27.4,18.4,27.3,18.3z"/>
	<path class="st14" d="M34.4,17.7c0.2,0.2,0.4,0.4,0.6,0.7c0.1,0.1,0.1,0.3,0.2,0.4c-0.7,0.4-1.4,0.7-2.1,0.9c-2,0.5-4,0.2-5.9-0.8
		c-0.1,0-0.1-0.1-0.1-0.1c0.1-0.1,0.1-0.3,0.2-0.4c0.2-0.2,0.4-0.5,0.6-0.7v-0.1c0.2-0.3,0.4-0.5,0.8-0.6c0.1,0.1,0.3,0.2,0.4,0.3
		c0.3,0.4,0.6,0.5,1,0.5c0.3,0,0.6-0.1,0.8-0.4c0.1-0.1,0.1-0.1,0.2-0.2c0,0,0,0,0.1,0c0.1,0.1,0.3,0.3,0.5,0.4
		c0.4,0.3,1.1,0.1,1.4-0.2c0.1-0.1,0.3-0.3,0.4-0.4c0-0.1,0.1-0.1,0.1-0.1c0.1,0,0.2,0.1,0.3,0.1c0.1,0.1,0.3,0.2,0.4,0.3
		C34.4,17.5,34.4,17.5,34.4,17.7z"/>
	<path class="st15" d="M31.2,17.3L31.2,17.3L31.2,17.3c-0.1,0.1-0.2,0.1-0.4,0.1c-0.4-0.1-0.9-0.2-1.2-0.5c-0.1-0.1-0.1-0.1-0.2-0.2
		c0-0.1,0.1-0.1,0.1-0.2c0.3-0.3,0.5-0.6,0.7-0.9c0.1-0.1,0.1-0.1-0.1-0.2c-0.7-0.4-1.2-0.8-1.6-1.4c-0.1-0.1-0.2-0.3-0.4-0.5
		c-0.1-0.1-0.1-0.1-0.1-0.2c-0.1-0.3-0.3-0.7-0.4-0.9c-0.1-0.4-0.1-0.9-0.1-1.3c2.5,0.8,4.4,0,5.7-2.3c0.1,0.3,0.3,0.6,0.5,0.9
		c0.2,0.2,0.5,0.4,0.8,0.7c0.1,0.1,0.1,0.1,0.1,0.1c0,0.7,0,1.5-0.2,2.2c-0.1,0.2-0.1,0.4-0.2,0.7c0,0.2-0.1,0.4-0.2,0.5
		c-0.4,0.6-0.9,1.2-1.5,1.5c-0.1,0.1-0.1,0.1-0.3,0.1c-0.1,0.1-0.1,0.1-0.1,0.1c0.1,0.4,0.4,0.7,0.7,0.9c0.1,0.1,0.1,0.1,0.1,0.2
		c-0.1,0.1-0.2,0.3-0.4,0.4c-0.4,0.2-0.8,0.4-1.2,0.4C31.3,17.4,31.2,17.4,31.2,17.3z"/>
	<path class="st16" d="M28.1,13.1c0.2,0.4,0.4,0.7,0.7,0.9c0.4,0.4,0.8,0.9,1.4,1.1c0.1,0.1,0.1,0.1,0.1,0.3
		c-0.2,0.4-0.4,0.8-0.8,1.1l-0.1,0.1l0,0C29.2,16.8,29,17,28.7,17c-0.3,0.1-0.6,0.4-0.8,0.7v-0.1c-0.1-0.1-0.1-0.2,0.1-0.4
		c0.2-0.3,0.2-0.6,0.1-0.9c0-0.1-0.1-0.2,0-0.3c0.1-0.2,0.1-0.4,0-0.7c0-0.1,0-0.1,0-0.2c0.1-0.2,0.1-0.5,0-0.7c0-0.1,0-0.1,0-0.2
		c0.1-0.2,0.1-0.4,0-0.7C28,13.3,28,13.2,28.1,13.1z"/>
	<path class="st16" d="M33,16.6c-0.2-0.2-0.5-0.4-0.7-0.7c-0.1-0.1-0.1-0.3-0.2-0.4c0-0.1,0-0.1,0.1-0.1c0.9-0.4,1.5-1.2,2-2
		l0.1-0.1c0.1,0.1,0.1,0.2,0,0.3c-0.1,0.2-0.1,0.4,0,0.7c0,0.1,0,0.1,0,0.2c-0.1,0.2-0.1,0.5,0,0.7c0,0.1,0,0.1,0,0.2
		c-0.1,0.2-0.1,0.5,0,0.7c0,0.1,0,0.1,0,0.2c-0.1,0.4-0.1,0.7,0.2,1.1c0.1,0.1,0.1,0.1,0,0.1c0,0.1-0.1,0.1-0.1,0.2
		c-0.2-0.2-0.5-0.4-0.8-0.7C33.4,17,33.1,16.7,33,16.6z"/>
	<path class="st10" d="M28.7,17c0.2-0.1,0.4-0.3,0.7-0.4c0.5,0.5,1.1,0.7,1.8,0.7c-0.5,0.7-1.4,0.8-2,0.1C29,17.3,28.8,17.2,28.7,17
		z"/>
	<path class="st10" d="M33,16.6c0.2,0.1,0.4,0.3,0.7,0.4c-0.3,0.3-0.5,0.6-0.8,0.8c-0.6,0.3-1.3,0.1-1.6-0.4
		C31.9,17.3,32.5,17.1,33,16.6z"/>
</g>
<g>
	<g>
		<path class="st17" d="M41.4,20.9c-4.9,0-9-4-9-9s4-9,9-9s9,4,9,9S46.4,20.9,41.4,20.9z"/>
		<path class="st12" d="M41.4,3.9c4.4,0,8,3.6,8,8s-3.6,8-8,8c-4.4,0-8-3.6-8-8S37,3.9,41.4,3.9 M41.4,1.9c-5.5,0-10,4.5-10,10
			s4.5,10,10,10c5.5,0,10-4.5,10-10S46.9,1.9,41.4,1.9L41.4,1.9z"/>
	</g>
	<g>
		<path class="st18" d="M40.3,15.3c0.1,0.1,0.4,0.2,0.5,0.3c0.6,0.2,1.1,0.1,1.6-0.1c0.1-0.1,0.1-0.1,0.2-0.1
			c0.1,0.1,0.1,0.1,0.1,0.2c0,0.2,0.1,0.4,0,0.7c0,0.1,0,0.1,0.1,0.1c0.2,0.2,0.4,0.4,0.7,0.6c0.7,0.4,1.3,1,1.7,1.7
			c-0.5,0.4-1.1,0.6-1.7,0.8c-0.9,0.3-1.9,0.4-2.8,0.3c-1.1-0.1-2.1-0.4-3-1l0,0c0.4-0.7,1-1.3,1.7-1.7c0.3-0.1,0.5-0.4,0.7-0.6
			c0.1-0.1,0.1-0.1,0.1-0.2c-0.1-0.3-0.1-0.5,0-0.8C40.1,15.5,40.2,15.4,40.3,15.3z"/>
		<path class="st13" d="M39.3,14.5c-0.2-0.1-0.4-0.3-0.7-0.4c-0.9-0.9-1.4-1.9-1.6-3.1c-0.1-1.3,0.2-2.4,0.9-3.4
			c0.7-0.9,1.6-1.5,2.7-1.7c1.2-0.2,2.4,0.1,3.4,0.9c1.3,1.1,1.8,2.5,1.7,4.1c-0.1,1.5-0.7,2.7-2,3.6c-0.1,0.1-0.1,0.1-0.2,0.1
			c-0.1-0.1,0-0.1,0.1-0.2c0.1-0.2,0.4-0.4,0.5-0.7c0.3-0.5,0.5-1.1,0.6-1.7c0.1-0.4,0-0.9,0-1.4c0-0.1-0.1-0.1-0.1-0.1
			s-0.1,0-0.1,0c-2,0-4,0-5.9,0c-0.3,0-0.3,0-0.3,0.3c0,0.5,0,0.9,0.1,1.4c0.1,0.9,0.4,1.6,1,2.2C39.2,14.3,39.3,14.4,39.3,14.5z"/>
		<path class="st19" d="M39.3,14.5c-0.1-0.1-0.3-0.4-0.4-0.5c-0.5-0.8-0.8-1.6-0.8-2.5c0-0.4,0-0.7,0-1c0-0.1,0-0.1,0.1-0.1
			c2.2,0,4.3,0,6.4,0c0.1,0,0.1,0,0.1,0.1c0,0.6,0.1,1.2-0.1,1.8c-0.1,0.9-0.5,1.6-1.1,2.2c0,0,0,0,0,0.1c-0.3,0.3-0.7,0.6-1,0.9
			c0,0.1-0.1,0.1-0.3,0.2c-0.7,0.4-1.4,0.3-2-0.1c-0.1,0-0.1-0.1-0.1-0.1C39.8,15,39.5,14.8,39.3,14.5z"/>
	</g>
</g>
</svg>
