<svg xmlns="http://www.w3.org/2000/svg" xmlns:xlink="http://www.w3.org/1999/xlink" viewBox="0 0 32 32" fill="#6a35ff">
  <path d="M4.2382812 3L4.1269531 3.8730469C4.1269531 3.8730469 3.93074 5.3892786 4.0273438 7.3222656C4.1163092 9.1024292 4.4325284 11.274114 5.4824219 13.09375C5.0296079 13.917653 4.6262203 14.788773 4.2910156 15.707031L4.2851562 15.722656L4.28125 15.738281C4.0815139 16.347186 3.8681528 16.930261 3.6132812 17.472656L3.6152344 17.472656L2.7167969 19.376953L3.46875 19.847656C3.46875 19.847656 7.2222115 22.235782 10.150391 24.609375L10.263672 24.941406C11.090388 27.370984 13.409145 29 16 29C18.590855 29 20.909619 27.370994 21.736328 24.941406L21.849609 24.609375C24.777788 22.235782 28.53125 19.847656 28.53125 19.847656L29.283203 19.376953L28.384766 17.472656L28.386719 17.472656C28.131847 16.930261 27.918486 16.347186 27.71875 15.738281L27.714844 15.722656L27.708984 15.707031C27.373778 14.788774 26.970394 13.917652 26.517578 13.09375C27.567472 11.274114 27.883691 9.1024292 27.972656 7.3222656C28.069256 5.3892786 27.873047 3.8730469 27.873047 3.8730469L27.761719 3L26.882812 3C22.821762 3 20.597467 5.348418 19.650391 6.6875C18.496947 6.2434243 17.274379 6 16 6C14.725621 6 13.503053 6.2434241 12.349609 6.6875C11.402533 5.348418 9.1782385 3 5.1171875 3L4.2382812 3 z M 6.0800781 5.1777344C8.4992632 5.4849753 9.8685028 6.7288074 10.542969 7.578125C9.114727 8.451558 7.8377323 9.6577253 6.7558594 11.105469C6.3041117 9.8929823 6.0877396 8.4702285 6.0253906 7.2226562C5.9676599 6.0674918 6.0357032 5.7097396 6.0800781 5.1777344 z M 25.919922 5.1777344C25.964292 5.7097396 26.032337 6.0674918 25.974609 7.2226562C25.912258 8.4702285 25.695887 9.8929823 25.244141 11.105469C24.162266 9.6577269 22.885274 8.4515575 21.457031 7.578125C22.131497 6.7288074 23.500737 5.4849753 25.919922 5.1777344 z M 16 8C20.204506 8 23.976193 11.314051 25.830078 16.392578C26.039781 17.029836 26.273915 17.680981 26.576172 18.324219L26.740234 18.671875C26.053345 19.106531 23.172822 20.898127 20.369141 23.212891L20.146484 23.396484L20.052734 23.679688L19.841797 24.296875C19.294506 25.905287 17.755145 27 16 27C14.244855 27 12.705494 25.905287 12.158203 24.296875L11.947266 23.679688L11.853516 23.396484L11.630859 23.212891C8.8271785 20.898127 5.9466551 19.106531 5.2597656 18.671875L5.4238281 18.324219C5.7260851 17.680981 5.9602187 17.029836 6.1699219 16.392578C8.0238069 11.314051 11.795494 8 16 8 z M 10 16C10 16 10.399219 19 12.199219 19L14 19C14 19 13.600781 16 11.800781 16L10 16 z M 20.199219 16C18.399219 16 18 19 18 19L19.800781 19C21.600781 19 22 16 22 16L20.199219 16 z M 14.691406 22C14.077406 22 13.768125 22.828453 14.203125 23.314453L15.511719 24.775391C15.781719 25.076391 16.219281 25.076391 16.488281 24.775391L17.796875 23.314453C18.231875 22.828453 17.923594 22 17.308594 22L14.691406 22 z" fill="#6a35ff" />
</svg>