<?xml version="1.0" encoding="utf-8"?>
<!-- Generator: Adobe Illustrator 24.0.0, SVG Export Plug-In . SVG Version: 6.00 Build 0)  -->
<svg version="1.1" id="Layer_1" xmlns="http://www.w3.org/2000/svg" xmlns:xlink="http://www.w3.org/1999/xlink" x="0px" y="0px"
	 viewBox="0 0 44.4 24" style="enable-background:new 0 0 44.4 24;" xml:space="preserve">
<style type="text/css">
	.st0{fill:#DDE3EB;}
	.st1{fill:#F0F3F6;}
	.st2{fill:#E0844F;}
	.st3{fill:#FFFFFF;}
	.st4{fill:#5AB6B1;}
	.st5{fill:#141720;}
	.st6{fill:#EBC09B;}
	.st7{fill:#DDBDD3;}
	.st8{fill:#DEBDD0;}
	.st9{fill:#D4DCE6;}
	.st10{fill:#FDFEFF;}
	.st11{fill:#421800;}
	.st12{fill:#B24FC4;}
	.st13{fill:#EFCFB3;}
	.st14{fill:#E6EBF1;}
</style>
<path class="st0" d="M30.8,1c-0.2,0.1-0.3,0-0.5,0l0,0l0,0C30.5,1,30.7,1,30.8,1z"/>
<path class="st0" d="M31.7,1c-0.2,0-0.3,0-0.5,0C31.4,1,31.5,1,31.7,1L31.7,1L31.7,1z"/>
<path class="st0" d="M41.5,12.2c0-0.2,0-0.3,0-0.5C41.5,11.9,41.5,12.1,41.5,12.2C41.5,12.3,41.5,12.2,41.5,12.2z"/>
<path class="st1" d="M30.4,1L30.4,1c-0.1,0-0.1,0-0.2,0l0,0C30.2,1,30.3,1,30.4,1z"/>
<path class="st1" d="M31.7,1L31.7,1c0.1,0,0.1,0,0.2,0l0,0C31.8,1,31.7,1,31.7,1z"/>
<path class="st1" d="M41.5,11.9L41.5,11.9c0,0.1,0,0.1,0,0.2l0,0C41.5,12,41.5,12,41.5,11.9z"/>
<g>
	<g>
		<path class="st2" d="M16.3,22.1c-5.5,0-10-4.5-10-10s4.5-10,10-10s10,4.5,10,10S21.8,22.1,16.3,22.1z"/>
		<path class="st3" d="M16.3,3.1c5,0,9,4,9,9s-4,9-9,9c-5,0-9-4-9-9S11.4,3.1,16.3,3.1 M16.3,1.1c-6.1,0-11,4.9-11,11s4.9,11,11,11
			s11-4.9,11-11S22.4,1.1,16.3,1.1L16.3,1.1z"/>
	</g>
	<g>
		<path class="st4" d="M15,16c0.2,0.1,0.4,0.2,0.6,0.3c0.7,0.2,1.2,0.2,1.8-0.2c0.1-0.1,0.2-0.1,0.2-0.2c0.1,0.1,0.2,0.2,0.2,0.2
			c0,0.2,0.1,0.5,0,0.8c0,0.1,0,0.2,0.1,0.2c0.2,0.2,0.5,0.5,0.8,0.7c0.8,0.5,1.5,1.1,2,2c-0.6,0.4-1.2,0.7-2,0.9
			c-1.1,0.3-2.1,0.4-3.2,0.3c-1.2-0.1-2.4-0.5-3.4-1.1l0,0c0.5-0.8,1.1-1.5,2-2c0.3-0.2,0.6-0.4,0.8-0.7C15,17.2,15,17.2,15,17
			c-0.1-0.3-0.1-0.6,0-0.9C14.9,16.1,15,16.1,15,16z"/>
		<path class="st5" d="M13.9,15c-0.2-0.1-0.5-0.3-0.7-0.5c-1.1-1-1.6-2.1-1.8-3.5c-0.1-1.5,0.2-2.7,1.1-3.8c0.7-1.1,1.8-1.7,3.1-2
			c1.4-0.2,2.7,0.1,3.8,1c1.5,1.2,2,2.8,2,4.6c-0.1,1.7-0.8,3.1-2.3,4.1C19,14.9,18.9,15,18.8,15c-0.1-0.1,0-0.2,0.1-0.2
			c0.2-0.2,0.4-0.5,0.6-0.8c0.3-0.6,0.6-1.2,0.7-2c0.1-0.5,0-1.1,0-1.6c0-0.2-0.1-0.2-0.2-0.2c-0.1,0-0.1,0-0.2,0
			c-2.2,0-4.5,0-6.7,0c-0.3,0-0.3,0-0.3,0.3c0,0.6,0,1.1,0.1,1.6c0.2,1,0.5,1.8,1.1,2.5C13.8,14.8,13.9,14.9,13.9,15z"/>
		<path class="st6" d="M13.9,15c-0.2-0.2-0.3-0.4-0.4-0.6c-0.6-0.9-0.9-1.8-0.9-2.9c0-0.4,0-0.8,0-1.1c0-0.1,0-0.2,0.2-0.2
			c2.4,0,4.8,0,7.3,0c0.1,0,0.2,0,0.2,0.1c0,0.7,0.1,1.4-0.1,2c-0.2,1-0.6,1.8-1.2,2.5c0,0,0,0,0,0.1c-0.3,0.3-0.7,0.7-1.1,1
			c0,0.2-0.2,0.2-0.3,0.2c-0.8,0.4-1.6,0.3-2.3-0.1C15,16.1,15,16,15,16C14.5,15.6,14.2,15.3,13.9,15z"/>
	</g>
</g>
<path class="st0" d="M41.5,12.2c-0.1-0.2,0-0.3,0-0.5l0,0C41.5,11.9,41.5,12.1,41.5,12.2z"/>
<path class="st1" d="M41.5,12.1L41.5,12.1L41.5,12.1c0-0.1,0-0.1,0-0.2l0,0C41.5,12,41.5,12,41.5,12.1z"/>
<g>
	<path class="st7" d="M26.8,18.2c-0.1,0-0.2,0-0.3,0C26.6,18.2,26.7,18.2,26.8,18.2z"/>
	<path class="st8" d="M27.2,18.2c-0.1,0.1-0.2,0-0.3,0C27,18.2,27.1,18.2,27.2,18.2z"/>
	<g>
		<path class="st9" d="M26.8,22.1c-5.5,0-9.9-4.5-9.9-10s4.4-10,9.9-10s9.9,4.5,9.9,10S32.3,22.1,26.8,22.1z"/>
		<path class="st10" d="M26.8,3.1c4.9,0,8.9,4,8.9,9s-4,9-8.9,9c-4.9,0-8.9-4-8.9-9S21.9,3.1,26.8,3.1 M26.8,1.1
			c-6,0-10.9,4.9-10.9,11s4.9,11,10.9,11s10.9-4.9,10.9-11S32.8,1.1,26.8,1.1L26.8,1.1z"/>
	</g>
	<path class="st11" d="M22.3,19.8c-0.7-0.4-1.3-0.9-1.8-1.4c-0.2-0.2-0.4-0.4-0.5-0.6c0.1-1.1,0.4-2.1,0.7-3.1
		c0.4-1.2,0.6-2.5,0.8-3.8c0.2-1,0.3-2.1,0.6-3.1c0.3-1.1,0.9-2,1.8-2.7c0.3-0.2,0.6-0.3,0.9-0.3c0,0,0.1,0,0.1,0
		c0.3,0.2,0.4,0,0.6-0.2c0.3-0.3,0.7-0.3,1.2-0.4c2-0.1,3.9,1.3,4.5,3.5c0.1,0.5,0.2,1.1,0.3,1.6c0.1,0.7,0.3,1.4,0.6,2
		c0.2,0.5,0.3,1.1,0.3,1.7c0,0.4,0,0.9,0.1,1.3c0.1,0.3,0.2,0.6,0.4,0.9c0.4,0.4,0.5,0.9,0.5,1.4c0,0.8-0.2,1.5-0.5,2.2
		c-0.2,0.2-0.4,0.4-0.6,0.5c-0.2,0.1-0.4,0.3-0.6,0.4c-0.2-0.1-0.2-0.3-0.4-0.5c-0.4-0.5-0.9-1-1.4-1.4c-0.3-0.2-0.5-0.3-0.8-0.5
		c-0.4-0.3-0.7-0.8-1-1.3c-0.1-0.2-0.1-0.3,0.1-0.4c0.5-0.3,1-0.7,1.4-1.1c0.1-0.1,0.1-0.2,0.1-0.3c0-0.5,0.1-1,0.3-1.5
		c0.2-0.4,0.3-0.8,0.4-1.2c0.2-0.6,0.1-1.2,0-1.8c-0.1-0.4-0.3-0.6-0.6-0.8c-0.4-0.2-0.8-0.4-1.2-0.6c-0.7-0.4-1.3-0.9-1.9-1.4
		c-0.4-0.3-0.8-0.5-1.3-0.5c-0.6,0-1,0.2-1.3,0.7c-0.3,0.4-0.4,0.9-0.6,1.4c-0.2,0.9-0.3,1.7-0.3,2.6c0,0.7,0.2,1.4,0.4,2.1
		c0.2,0.5,0.5,0.9,0.8,1.2c0.4,0.4,0.9,0.8,1.4,1.1c0.2,0.1,0.2,0.1,0.1,0.3c-0.2,0.5-0.5,1-1,1.3c-0.2,0.2-0.5,0.3-0.7,0.5
		c-0.6,0.4-1.1,0.8-1.5,1.4c-0.1,0.1-0.2,0.3-0.3,0.4C22.4,19.7,22.4,19.8,22.3,19.8z"/>
	<path class="st12" d="M29.6,17.9c0.8,0.5,1.4,1.1,1.8,1.9c-0.3,0.2-0.7,0.4-1.1,0.6c-1.2,0.5-2.5,0.8-3.8,0.7
		c-1.5-0.1-2.8-0.5-4.1-1.2c0,0,0,0-0.1,0c0.5-0.8,1-1.5,1.8-2c0.2,0.1,0.3,0.3,0.4,0.4c0.3,0.3,0.6,0.5,1,0.6
		c0.5,0.1,0.9-0.1,1.2-0.5c0-0.1,0.1-0.1,0.2-0.1c0,0,0,0,0.1,0c0.1,0.1,0.2,0.2,0.2,0.2c0.5,0.5,1.3,0.5,1.8,0
		c0.2-0.2,0.3-0.3,0.5-0.5C29.5,17.9,29.5,17.9,29.6,17.9z"/>
	<path class="st13" d="M26.9,18.2L26.9,18.2L26.9,18.2C26.8,18.2,26.8,18.3,26.9,18.2c-0.2,0-0.3,0-0.4,0c-0.6-0.1-1.1-0.3-1.6-0.7
		c0,0-0.1-0.1-0.1-0.1c0.4-0.4,0.8-0.8,1-1.3c0-0.1,0-0.1-0.1-0.2c-0.9-0.4-1.6-1.1-2.1-2c-0.3-0.4-0.4-1-0.5-1.5
		C23,11,23,9.6,23.5,8.3c0.2-0.5,0.3-1,0.7-1.3c0.3-0.3,0.6-0.4,1-0.4c0.5,0,1,0.2,1.4,0.5c0.6,0.5,1.2,1,1.9,1.4
		c0.4,0.2,0.8,0.4,1.3,0.6c0.4,0.2,0.6,0.5,0.7,1c0.1,0.8,0.1,1.6-0.3,2.4c-0.2,0.5-0.5,1-0.5,1.6c0,0.1,0,0.2,0,0.2
		c0,0.3-0.1,0.5-0.3,0.6c-0.4,0.4-0.9,0.8-1.4,1.1c-0.1,0-0.1,0.1-0.1,0.2c0.2,0.5,0.5,0.9,0.9,1.2c0,0,0.1,0.1,0.1,0.1
		c0,0.1,0,0.1-0.1,0.1c-0.5,0.4-1,0.7-1.6,0.8C27.1,18.2,27,18.3,26.9,18.2C26.9,18.2,26.9,18.2,26.9,18.2z"/>
	<path class="st14" d="M24.9,17.4c0.4,0.4,0.9,0.7,1.4,0.8c0.1,0,0.1,0,0.2,0c0.1,0,0.2,0,0.3,0c0,0,0,0,0,0
		c-0.5,0.7-1.2,0.9-1.9,0.4c-0.3-0.2-0.6-0.5-0.8-0.8C24.4,17.7,24.6,17.5,24.9,17.4z"/>
	<path class="st14" d="M27.2,18.2c0.5,0,0.9-0.2,1.3-0.5c0.1-0.1,0.2-0.2,0.3-0.3c0.3,0.2,0.5,0.3,0.8,0.5c-0.2,0.2-0.4,0.5-0.7,0.7
		c-0.6,0.5-1.7,0.4-2-0.3c0,0,0,0,0,0C27,18.2,27.1,18.2,27.2,18.2z"/>
</g>
</svg>
