<?xml version="1.0" encoding="utf-8"?>
<!-- Generator: Adobe Illustrator 24.0.0, SVG Export Plug-In . SVG Version: 6.00 Build 0)  -->
<svg version="1.1" id="Layer_1" xmlns="http://www.w3.org/2000/svg" xmlns:xlink="http://www.w3.org/1999/xlink" x="0px" y="0px"
	 viewBox="0 0 24 24" style="enable-background:new 0 0 24 24;" xml:space="preserve">
<style type="text/css">
	.st0{fill:url(#SVGID_1_);}
	.st1{fill:url(#SVGID_2_);}
	.st2{fill:url(#SVGID_3_);}
	.st3{fill:url(#SVGID_4_);}
	.st4{opacity:5.000000e-02;enable-background:new    ;}
	.st5{opacity:7.000000e-02;enable-background:new    ;}
	.st6{opacity:9.000000e-02;enable-background:new    ;}
	.st7{fill:url(#SVGID_5_);}
	.st8{fill:#FFFFFF;}
	.st9{fill:#21A366;}
	.st10{fill:#185C37;}
	.st11{fill:#107C42;}
	.st12{fill:#3FA071;}
	.st13{fill:#33C481;}
	.st14{fill:url(#SVGID_6_);}
</style>
<g>
	
		<linearGradient id="SVGID_1_" gradientUnits="userSpaceOnUse" x1="307.0472" y1="-368.7243" x2="307.0472" y2="-365.9532" gradientTransform="matrix(1 0 0 -1 -294 -360)">
		<stop  offset="0" style="stop-color:#42A3F2"/>
		<stop  offset="1" style="stop-color:#42A4EB"/>
	</linearGradient>
	<path class="st0" d="M17.6,5.8H8.5c-0.4,0-0.7,0.3-0.7,0.7v2.3h10.4V6.5C18.3,6.1,18,5.8,17.6,5.8z"/>
	
		<linearGradient id="SVGID_2_" gradientUnits="userSpaceOnUse" x1="307.0472" y1="-377.5212" x2="307.0472" y2="-374.6102" gradientTransform="matrix(1 0 0 -1 -294 -360)">
		<stop  offset="0" style="stop-color:#11408A"/>
		<stop  offset="1" style="stop-color:#103F8F"/>
	</linearGradient>
	<path class="st1" d="M7.8,14.6v2.3c0,0.4,0.3,0.7,0.7,0.7h9.1c0.4,0,0.7-0.3,0.7-0.7v-2.3H7.8z"/>
	
		<linearGradient id="SVGID_3_" gradientUnits="userSpaceOnUse" x1="307.0472" y1="-358.8237" x2="307.0472" y2="-358.8039" gradientTransform="matrix(1 0 0 -1 -294 -360)">
		<stop  offset="0" style="stop-color:#3079D6"/>
		<stop  offset="1" style="stop-color:#297CD2"/>
	</linearGradient>
	<path class="st2" d="M7.8,8.7h10.4v2.9H7.8V8.7z"/>
	
		<linearGradient id="SVGID_4_" gradientUnits="userSpaceOnUse" x1="301.8408" y1="-373.1381" x2="312.2536" y2="-373.1381" gradientTransform="matrix(1 0 0 -1 -294 -360)">
		<stop  offset="0" style="stop-color:#1D59B3"/>
		<stop  offset="1" style="stop-color:#195BBC"/>
	</linearGradient>
	<path class="st3" d="M7.8,11.7h10.4v2.9H7.8V11.7z"/>
	<path class="st4" d="M11.2,8.1H7.8v7.8h3.4c0.7,0,1.2-0.5,1.2-1.2V9.3C12.4,8.6,11.9,8.1,11.2,8.1z"/>
	<path class="st5" d="M11.2,15.6H7.8V8.2h3.3c0.6,0,1,0.5,1,1v5.3C12.2,15.1,11.7,15.6,11.2,15.6z"/>
	<path class="st6" d="M11.1,15.2H7.8V8.3h3.3c0.5,0,0.8,0.4,0.8,0.8v5.3C12,14.9,11.6,15.2,11.1,15.2z"/>
	
		<linearGradient id="SVGID_5_" gradientUnits="userSpaceOnUse" x1="299.4796" y1="-368.6522" x2="305.5809" y2="-374.7531" gradientTransform="matrix(1 0 0 -1 -294 -360)">
		<stop  offset="0" style="stop-color:#256AC2"/>
		<stop  offset="1" style="stop-color:#1247AD"/>
	</linearGradient>
	<path class="st7" d="M11.1,14.9H5.9c-0.4,0-0.7-0.3-0.7-0.7V9.1c0-0.4,0.3-0.7,0.7-0.7h5.2c0.4,0,0.7,0.3,0.7,0.7v5.2
		C11.7,14.6,11.5,14.9,11.1,14.9z"/>
	<path class="st8" d="M9.9,10l-0.5,2.4L8.9,10H8.2l-0.6,2.4L7.1,10H6.4l0.8,3.3H8l0.6-2.5l0.6,2.5h0.7l0.8-3.3H9.9z"/>
</g>
<g>
	<rect x="13.1" y="8.7" class="st9" width="5.2" height="2.9"/>
	<path class="st10" d="M18.3,11.7H7.8v5.2c0,0.4,0.3,0.7,0.7,0.7h9.1c0.4,0,0.7-0.3,0.7-0.7V11.7z"/>
	<rect x="13.1" y="11.7" class="st11" width="5.2" height="2.9"/>
	<rect x="7.8" y="8.7" class="st12" width="5.2" height="2.9"/>
	<path class="st13" d="M17.6,5.8h-4.6v2.9h5.2V6.5C18.3,6.1,18,5.8,17.6,5.8z"/>
	<path class="st9" d="M8.5,5.8h4.6v2.9H7.8V6.5C7.8,6.1,8.1,5.8,8.5,5.8z"/>
	<path class="st4" d="M11.2,8.1H7.8v7.8h3.4c0.7,0,1.2-0.5,1.2-1.2V9.3C12.4,8.6,11.9,8.1,11.2,8.1z"/>
	<path class="st5" d="M11.2,15.6H7.8V8.2h3.3c0.6,0,1,0.5,1,1v5.3C12.2,15.1,11.7,15.6,11.2,15.6z"/>
	<path class="st6" d="M11.1,15.2H7.8V8.3h3.3c0.5,0,0.8,0.4,0.8,0.8v5.3C12,14.9,11.6,15.2,11.1,15.2z"/>
	
		<linearGradient id="SVGID_6_" gradientUnits="userSpaceOnUse" x1="299.4736" y1="-368.6472" x2="305.441" y2="-374.6146" gradientTransform="matrix(1 0 0 -1 -294 -360)">
		<stop  offset="0" style="stop-color:#18884F"/>
		<stop  offset="1" style="stop-color:#0B6731"/>
	</linearGradient>
	<path class="st14" d="M11.1,14.9H5.9c-0.4,0-0.7-0.3-0.7-0.7V9.1c0-0.4,0.3-0.7,0.7-0.7h5.2c0.4,0,0.7,0.3,0.7,0.7v5.2
		C11.7,14.6,11.5,14.9,11.1,14.9z"/>
	<path class="st8" d="M7.1,10h0.8l0.6,1.2L9.2,10h0.7l-1,1.6l1,1.6H9.2L8.5,12l-0.7,1.3H7l1-1.6L7.1,10z"/>
</g>
</svg>
