<svg xmlns="http://www.w3.org/2000/svg" xmlns:xlink="http://www.w3.org/1999/xlink" viewBox="0 0 48 48" fill="#FFFFFF">
  <path d="M27.736328 5.0078125C27.486594 4.9908594 27.232969 5.0015625 26.980469 5.0390625L9.2773438 7.6953125C8.5433438 7.8053125 8 8.4357344 8 9.1777344L8 38.822266C8 39.565266 8.5433437 40.194688 9.2773438 40.304688L26.980469 42.960938C27.153469 42.986938 27.328 43 27.5 43C28.333 43 29.143203 42.703344 29.783203 42.152344C30.42737 41.597344 30.824873 40.828958 30.945312 40L36.5 40C38.414955 40 40 38.414955 40 36.5L40 11.5C40 9.5850452 38.414955 8 36.5 8L30.945312 8C30.824873 7.1710648 30.42737 6.403776 29.783203 5.8496094C29.203453 5.3508594 28.485531 5.0586719 27.736328 5.0078125 z M 31 11L36.5 11C36.795045 11 37 11.204955 37 11.5L37 36.5C37 36.795045 36.795045 37 36.5 37L31 37L31 11 z M 24 23C25.105 23 26 23.895 26 25C26 26.105 25.105 27 24 27C22.895 27 22 26.105 22 25C22 23.895 22.895 23 24 23 z" fill="#FFFFFF" />
</svg>