<?xml version="1.0" encoding="utf-8"?>
<!-- Generator: Adobe Illustrator 24.0.0, SVG Export Plug-In . SVG Version: 6.00 Build 0)  -->
<svg version="1.1" id="Layer_1" xmlns="http://www.w3.org/2000/svg" xmlns:xlink="http://www.w3.org/1999/xlink" x="0px" y="0px"
	 viewBox="0 0 24 24" style="enable-background:new 0 0 24 24;" xml:space="preserve">
<style type="text/css">
	.st0{fill:#EBEDF7;}
	.st1{fill:#FF4040;}
</style>
<path class="st0" d="M18.3,9.3v9.2c0,0.4-0.3,0.7-0.9,0.7H6.3c-0.5,0-0.9-0.3-0.9-0.7V6c0-0.4,0.3-0.7,0.9-0.7h7.3L18.3,9.3z"/>
<g>
	<path class="st1" d="M8.1,14v1.3H7.5v-3.6h1.4c0.2,0,0.4,0,0.6,0.1c0.2,0.1,0.3,0.1,0.4,0.2s0.2,0.2,0.3,0.4s0.1,0.3,0.1,0.5
		c0,0.2,0,0.3-0.1,0.5s-0.1,0.3-0.3,0.3c-0.1,0.1-0.2,0.2-0.4,0.2C9.2,14,9,14,8.8,14H8.1z M8.1,13.5h0.7c0.1,0,0.2,0,0.3,0
		c0.1,0,0.2-0.1,0.2-0.1c0.1-0.1,0.1-0.1,0.1-0.2c0-0.1,0-0.2,0-0.2c0-0.1,0-0.2,0-0.2c0-0.1-0.1-0.1-0.1-0.2
		c-0.1-0.1-0.1-0.1-0.2-0.1c-0.1,0-0.2-0.1-0.3-0.1H8.1V13.5z"/>
	<path class="st1" d="M10.7,15.3v-3.6h1.1c0.2,0,0.5,0,0.7,0.1c0.2,0.1,0.4,0.2,0.5,0.3c0.1,0.1,0.3,0.3,0.3,0.5
		c0.1,0.2,0.1,0.4,0.1,0.7v0.2c0,0.3,0,0.5-0.1,0.7c-0.1,0.2-0.2,0.4-0.3,0.5c-0.1,0.1-0.3,0.3-0.5,0.3c-0.2,0.1-0.4,0.1-0.7,0.1
		H10.7z M11.3,12.2v2.6h0.4c0.2,0,0.3,0,0.4-0.1s0.2-0.1,0.3-0.2c0.1-0.1,0.1-0.2,0.2-0.4c0-0.1,0.1-0.3,0.1-0.5v-0.2
		c0-0.4-0.1-0.7-0.3-0.9c-0.2-0.2-0.4-0.3-0.7-0.3H11.3z"/>
	<path class="st1" d="M16.1,13.8h-1.4v1.5H14v-3.6h2.3v0.5h-1.7v1.1h1.4V13.8z"/>
</g>
</svg>
