<svg xmlns="http://www.w3.org/2000/svg" xmlns:xlink="http://www.w3.org/1999/xlink" viewBox="0 0 16 16" fill="#FFFFFF">
  <path d="M10.269531 1.023438L8.148438 3.148438C8.144531 3.148438 8.144531 3.148438 8.144531 3.148438C8.144531 3.148438 8.144531 3.148438 8.140625 3.148438C6.972656 4.347656 5.746094 5 3.5 5L3.085938 5L3.007813 5.40625C2.457031 8.234375 1.265625 13.128906 1.265625 13.128906L1.070313 13.925781L1.867188 13.734375C1.867188 13.734375 6.828125 12.558594 9.601563 11.988281L10 11.90625L10 11.5C10 9.203125 10.671875 8.0625 11.855469 6.851563L13.980469 4.726563L13.269531 4.023438L11.5 5.792969L9.207031 3.5L10.980469 1.726563 Z M 8.488281 4.195313L10.8125 6.515625C9.808594 7.671875 9.171875 9.074219 9.078125 11.082031C6.964844 11.523438 4.628906 12.070313 3.335938 12.375L6.742188 8.964844C6.828125 8.988281 6.914063 9 7 9C7.550781 9 8 8.550781 8 8C8 7.449219 7.550781 7 7 7C6.449219 7 6 7.449219 6 8C6 8.085938 6.011719 8.171875 6.035156 8.257813L2.632813 11.660156C2.9375 10.378906 3.480469 8.074219 3.914063 5.921875C5.890625 5.832031 7.332031 5.222656 8.488281 4.195313Z" fill="#FFFFFF" />
</svg>