<?xml version="1.0" encoding="utf-8"?>
<!-- Generator: Adobe Illustrator 24.0.0, SVG Export Plug-In . SVG Version: 6.00 Build 0)  -->
<svg version="1.1" id="Layer_1" xmlns="http://www.w3.org/2000/svg" xmlns:xlink="http://www.w3.org/1999/xlink" x="0px" y="0px"
	 viewBox="0 0 48 48" style="enable-background:new 0 0 48 48;" xml:space="preserve">
<style type="text/css">
	.st0{fill:#00E1FF;}
	.st1{fill:#0026B2;}
</style>
<g>
	<path class="st0" d="M46.44,17.42c-0.21,0-0.41-0.14-0.48-0.35C42.97,7.46,34.2,1,24.12,1c-2.38,0-4.72,0.36-6.97,1.08
		c-0.27,0.09-0.54-0.06-0.63-0.32c-0.08-0.26,0.06-0.54,0.32-0.63C19.19,0.38,21.64,0,24.12,0c10.51,0,19.68,6.74,22.8,16.77
		c0.08,0.26-0.07,0.54-0.33,0.63C46.54,17.41,46.49,17.42,46.44,17.42z"/>
</g>
<g>
	<g>
		<path class="st1" d="M16.86,1.16l-0.01-0.04c-0.02,0.01-0.04,0.02-0.06,0.02C16.81,1.15,16.84,1.15,16.86,1.16z"/>
		<path class="st1" d="M47.09,17.38c-0.05,0.15-0.15,0.29-0.3,0.37c-0.22,0.12-0.47,0.1-0.66-0.03c0.56,1.99,0.85,4.06,0.85,6.15
			c0,12.6-10.26,22.86-22.86,22.86c-12.61,0-22.86-10.26-22.86-22.86c0-9.73,6.07-18.27,15.17-21.51c-0.23-0.1-0.4-0.32-0.4-0.59
			c0-0.15,0.06-0.29,0.15-0.4C6.62,4.73,0.25,13.68,0.25,23.87c0,13.17,10.71,23.88,23.88,23.88S48,37.03,48,23.87
			C48,21.66,47.69,19.49,47.09,17.38z"/>
	</g>
</g>
<g>
	<path class="st1" d="M17.05,18.62v1.47H13v2.36c0.4-0.22,0.86-0.33,1.37-0.33c0.9,0,1.67,0.27,2.32,0.81
		c0.65,0.54,0.98,1.27,0.98,2.2c0,0.93-0.34,1.69-1.02,2.3s-1.51,0.91-2.5,0.91c-1.29,0-2.32-0.43-3.09-1.29l0.87-1.18
		c0.07,0.07,0.17,0.16,0.3,0.26c0.12,0.1,0.38,0.24,0.76,0.41s0.81,0.25,1.26,0.25c0.46,0,0.88-0.14,1.25-0.41
		c0.38-0.28,0.56-0.68,0.56-1.2c0-0.53-0.2-0.94-0.6-1.22s-0.9-0.43-1.51-0.43s-1.19,0.15-1.74,0.45l-0.69-0.74v-4.62H17.05z"/>
	<path class="st1" d="M20.39,19.17c0.61-0.49,1.38-0.73,2.31-0.73c0.93,0,1.7,0.24,2.31,0.73c0.61,0.49,0.92,1.1,0.92,1.83
		c0,0.74-0.34,1.39-1.03,1.96c0.93,0.59,1.39,1.41,1.39,2.47c0,0.82-0.33,1.52-0.99,2.08c-0.66,0.56-1.53,0.84-2.6,0.84
		c-1.07,0-1.94-0.28-2.6-0.84s-0.99-1.25-0.99-2.08c0-1.06,0.46-1.89,1.39-2.47c-0.69-0.57-1.03-1.22-1.03-1.96
		C19.47,20.27,19.78,19.66,20.39,19.17z M21.35,26.55c0.42,0.27,0.87,0.41,1.35,0.41s0.93-0.13,1.35-0.41s0.63-0.66,0.63-1.16
		c0-0.5-0.2-0.89-0.6-1.17s-0.86-0.41-1.37-0.41s-0.97,0.14-1.37,0.41s-0.6,0.66-0.6,1.17C20.72,25.89,20.93,26.28,21.35,26.55z
		 M21.48,22.17c0.34,0.28,0.75,0.42,1.22,0.42s0.87-0.14,1.22-0.42c0.34-0.28,0.52-0.62,0.52-1.03s-0.17-0.75-0.52-1.02
		c-0.34-0.27-0.75-0.41-1.22-0.41s-0.87,0.14-1.22,0.41s-0.52,0.62-0.52,1.02S21.14,21.9,21.48,22.17z"/>
	<path class="st1" d="M31.24,19.04c0.39,0.43,0.59,0.94,0.59,1.55c0,0.6-0.2,1.12-0.6,1.55c-0.4,0.43-0.89,0.65-1.49,0.65
		c-0.59,0-1.08-0.21-1.48-0.64c-0.39-0.43-0.59-0.94-0.59-1.55c0-0.6,0.2-1.12,0.6-1.55c0.4-0.43,0.89-0.65,1.48-0.65
		C30.35,18.4,30.84,18.62,31.24,19.04z M36.83,18.64l-7.04,9.61h-1.77l7.04-9.61H36.83z M30.32,21.31c0.15-0.19,0.22-0.42,0.22-0.69
		s-0.08-0.51-0.23-0.69c-0.16-0.19-0.35-0.28-0.57-0.28s-0.41,0.09-0.56,0.28c-0.15,0.19-0.22,0.42-0.22,0.69s0.08,0.51,0.23,0.69
		c0.16,0.19,0.35,0.28,0.57,0.28C29.98,21.59,30.17,21.5,30.32,21.31z M36.69,24.61c0.39,0.43,0.59,0.94,0.59,1.55
		c0,0.6-0.2,1.12-0.6,1.55s-0.89,0.65-1.48,0.65s-1.08-0.21-1.48-0.64c-0.39-0.43-0.59-0.94-0.59-1.55c0-0.61,0.2-1.12,0.6-1.55
		c0.4-0.43,0.89-0.65,1.48-0.65S36.3,24.18,36.69,24.61z M35.8,26.9c0.15-0.19,0.22-0.42,0.22-0.69s-0.08-0.51-0.23-0.69
		c-0.16-0.19-0.35-0.28-0.57-0.28s-0.41,0.09-0.56,0.28c-0.15,0.19-0.22,0.42-0.22,0.69s0.08,0.51,0.23,0.69s0.35,0.28,0.57,0.28
		S35.65,27.09,35.8,26.9z"/>
</g>
</svg>
