<?xml version="1.0" encoding="utf-8"?>
<!-- Generator: Adobe Illustrator 24.0.0, SVG Export Plug-In . SVG Version: 6.00 Build 0)  -->
<svg version="1.1" id="Layer_1" xmlns="http://www.w3.org/2000/svg" xmlns:xlink="http://www.w3.org/1999/xlink" x="0px" y="0px"
	 viewBox="0 0 38.9 36.24" style="enable-background:new 0 0 38.9 36.24;" xml:space="preserve">
<style type="text/css">
	.st0{fill:#E6E6E6;}
	.st1{fill:#3F3D56;}
	.st2{fill:#6C63FF;}
	.st3{fill:#FF6584;}
	.st4{opacity:0.3;fill:#F0F0F0;enable-background:new    ;}
	.st5{fill:#F2F2F2;}
	.st6{fill:#CCCCCC;}
</style>
<g>
	<path class="st0" d="M13.99,28.97c-0.11-0.31-0.36-0.54-0.67-0.61c-0.3-0.07-0.65,0.04-0.91,0.27c-0.26,0.23-0.43,0.57-0.7,0.79
		s-0.7,0.26-0.8-0.05c-0.09-0.3,0.18-0.62,0.3-0.94c0.14-0.39,0.03-0.85-0.25-1.05c-0.29-0.2-0.72-0.14-1,0.16
		c-0.24,0.25-0.34,0.61-0.53,0.9c-0.19,0.3-0.55,0.54-0.79,0.36c-0.2-0.15-0.18-0.5-0.08-0.77s0.27-0.52,0.34-0.81
		c0.07-0.32-0.01-0.66-0.22-0.87c-0.22-0.2-0.53-0.26-0.8-0.14c-0.32,0.13-0.59,0.47-0.93,0.5c-0.34,0.03-0.63-0.29-0.97-0.2
		C5.7,26.58,5.51,26.9,5.45,27.2c-0.05,0.3,0.01,0.6,0.07,0.89c-0.27,0-0.54,0.18-0.73,0.42c-0.19,0.24-0.33,0.53-0.45,0.81
		l-0.32,0.71c-0.16,0.36-0.33,0.74-0.37,1.13c-0.07,0.79,0.41,1.43,0.93,1.88c0.39,0.34,0.85,0.64,1.37,0.62s1.11-0.49,1.16-1.09
		c-0.18,0.47-0.12,1,0.07,1.42c0.19,0.42,0.5,0.74,0.84,1.01c0.88,0.71,1.94,1.14,3.06,1.23c0.44,0.04,0.94,0,1.29-0.36
		c0.34-0.36,0.4-1,0.13-1.35c0.39,0.16,0.92-0.05,1.18-0.47s0.23-1.03-0.07-1.34c0.2,0.01,0.4,0.03,0.6-0.05
		c0.19-0.08,0.38-0.28,0.39-0.5c0.02-0.28-0.22-0.46-0.44-0.56c-0.22-0.11-0.47-0.22-0.53-0.49c0.3-0.05,0.57-0.4,0.57-0.74
		c-0.01-0.34-0.29-0.6-0.59-0.55l0.37-0.85"/>
	<path class="st1" d="M7.64,26.29C7.59,26.18,7.6,26.08,7.65,26l0.53-0.69c0.1-0.13,0.33-0.15,0.54-0.05l0.43,0.2
		c0.22,0.1,0.35,0.29,0.31,0.46l-0.18,0.86c-0.02,0.1-0.1,0.17-0.21,0.19c-0.13,0.03-0.26,0.01-0.38-0.05l-0.78-0.37
		C7.81,26.5,7.71,26.4,7.64,26.29z"/>
	<path class="st2" d="M32.77,14.15c0.02,0.17,0.04,0.34,0.06,0.51c0.02,0.16,0.03,0.32,0.04,0.48c0.03,0.42,0.05,0.84,0.06,1.26
		c0,0.16,0,0.33,0,0.49c0,0.37-0.01,0.73-0.03,1.1c-0.38,7.3-4.12,14.77-10.02,12.71c-1.38-0.48-2.03-3.22-4.02-5.69l-0.02-0.03
		c-0.41-0.51-0.86-0.98-1.35-1.41c-0.36-0.31-0.73-0.59-1.12-0.85c-0.26-0.17-0.53-0.33-0.82-0.48c-1.7-0.89-3.93-1.47-6.93-1.43
		c-0.2,0-0.41,0.01-0.62,0.02C7.36,20.85,6.7,20.91,6,20.99c-0.52,0.06-1.05,0.13-1.61,0.23c-0.38,0.06-0.78,0.13-1.18,0.22
		c-3.4,0.67-3.82-2.06-2.59-5.72c0.32-0.93,0.69-1.83,1.13-2.71c0.66-1.34,1.41-2.63,2.25-3.87c0.08-0.12,0.16-0.24,0.25-0.36
		C4.43,8.52,4.61,8.26,4.8,8.01c1.18-1.6,4.35-2.62,5.05-4.71c0.87-2.58,7.08-4.19,8.94-2.79c1.07,0.8,1.01,1.8,2.25,2.24
		c0.07,0.02,0.21,0,0.4-0.05c1.46-0.43,3.03,0.07,3.99,1.27l0.01,0.01c0,0,1.95-0.05,3.2,1.27c1.47,1.56,2.61,3.41,3.34,5.44
		C32.36,11.75,32.62,12.92,32.77,14.15z"/>
	<path class="st1" d="M12.31,15.45l-0.27,0.59l1.71,0.81l0.27-0.59c0.15-0.32,0.14-1.32-0.33-1.55
		C13.21,14.49,12.45,15.13,12.31,15.45z"/>
	<path class="st1" d="M18.19,23.12l-8.82-4.17h0c-0.09-0.04-0.13-0.16-0.09-0.25c0,0,0,0,0,0c0.04-0.1,0.15-0.14,0.25-0.09
		l8.82,4.17c0.04,0.02,0.08,0.06,0.1,0.11c0.01,0.02,0.01,0.04,0.01,0.07c0,0.1-0.08,0.19-0.19,0.19
		C18.24,23.13,18.22,23.13,18.19,23.12z"/>
	<polygon class="st0" points="9.94,26.26 7.42,25.07 11.37,16.41 13.89,17.6 	"/>
	<path class="st1" d="M19.46,6.25l-0.27,0.59l1.71,0.81l0.27-0.59c0.15-0.32,0.14-1.32-0.33-1.55C20.36,5.29,19.61,5.93,19.46,6.25z
		"/>
	<path class="st1" d="M9.99,27.28C9.94,27.18,9.94,27.07,10,27l0.53-0.69c0.1-0.13,0.33-0.15,0.54-0.05l0.43,0.2
		c0.22,0.1,0.35,0.29,0.31,0.46l-0.18,0.86c-0.02,0.1-0.1,0.17-0.21,0.19c-0.13,0.03-0.26,0.01-0.38-0.05l-0.78-0.37
		C10.15,27.49,10.05,27.4,9.99,27.28z"/>
	<path class="st1" d="M12.38,28.49c-0.05-0.11-0.05-0.21,0.01-0.29l0.53-0.69c0.1-0.13,0.33-0.15,0.54-0.05l0.43,0.2
		c0.22,0.1,0.35,0.29,0.31,0.46l-0.18,0.86c-0.02,0.1-0.1,0.17-0.21,0.19c-0.13,0.03-0.26,0.01-0.38-0.05l-0.78-0.37
		C12.54,28.69,12.44,28.6,12.38,28.49z"/>
	<polygon class="st0" points="12.38,27.38 9.86,26.19 17.85,8.69 20.37,9.88 	"/>
	<polyline class="st1" points="11.16,26.92 10.99,26.84 15.08,17.63 15.36,17 15.52,17.08 15.24,17.71 	"/>
	<polyline class="st1" points="7.97,26.39 7.8,26.32 11.89,17.1 12.17,16.47 12.33,16.55 12.05,17.18 	"/>
	<path class="st0" d="M18.24,7.85l0.32-0.4l2.36,1.11l-0.11,0.5c0.15,0.52-0.51,2.29-0.73,2.63l-3.42-1.61
		C16.86,9.65,17.77,8,18.24,7.85z"/>
	<path class="st0" d="M18.42,7.46c-0.08-0.06-0.11-0.14-0.06-0.19l0.95-0.98c0.04-0.04,0.12-0.05,0.2-0.01l1.61,0.76
		c0.08,0.04,0.12,0.1,0.12,0.16l-0.13,1.37c0,0.01,0,0.02-0.01,0.03c-0.03,0.06-0.12,0.08-0.21,0.03l-2.43-1.15
		C18.45,7.47,18.43,7.46,18.42,7.46z"/>
	<path class="st1" d="M16.39,18.15l-2.18-1.03c-0.08-0.03-0.14-0.09-0.18-0.17C14,16.89,14,16.81,14.03,16.74l1.49-3.26
		c0.06-0.13,0.24-0.18,0.41-0.1l2.18,1.03c0.16,0.08,0.25,0.25,0.18,0.38l-1.49,3.26c-0.03,0.07-0.09,0.12-0.17,0.13
		c-0.03,0.01-0.05,0.01-0.08,0.01C16.49,18.19,16.44,18.18,16.39,18.15z"/>
	<polygon class="st0" points="14.82,28.53 12.3,27.34 16.25,18.68 18.77,19.87 	"/>
	<path class="st1" d="M19.27,7.12c0.09-0.21,0.29-0.32,0.43-0.25l0.74,0.35c0.14,0.07,0.18,0.29,0.09,0.5
		c-0.09,0.21-0.29,0.32-0.43,0.25l-0.74-0.35C19.21,7.55,19.17,7.33,19.27,7.12z"/>
	<path class="st1" d="M17.14,17.7l-0.27,0.59l1.71,0.81l0.27-0.59c0.15-0.32,0.14-1.32-0.33-1.55
		C18.04,16.73,17.28,17.37,17.14,17.7z"/>
	<path class="st0" d="M26.51,14.7c0.17,0.11,0,0.38-0.17,0.26C26.17,14.85,26.34,14.58,26.51,14.7z"/>
	<path class="st0" d="M9.18,10.84c0.17,0.11,0,0.38-0.17,0.26C8.84,10.99,9.01,10.72,9.18,10.84z"/>
	<path class="st0" d="M20.99,13.91c0.17,0.11,0,0.38-0.17,0.26C20.65,14.06,20.83,13.79,20.99,13.91z"/>
	<path class="st0" d="M26.51,24.44c0.17,0.11,0,0.38-0.17,0.26C26.17,24.59,26.34,24.32,26.51,24.44z"/>
	<path class="st0" d="M18.02,2.46c0.17,0.11,0,0.38-0.17,0.26C17.68,2.61,17.85,2.34,18.02,2.46z"/>
	<path class="st0" d="M26.21,7.63c0.17,0.11,0,0.38-0.17,0.26C25.87,7.79,26.04,7.52,26.21,7.63z"/>
	<polygon class="st0" points="14.28,6.49 14.38,6.46 14.4,6.57 14.47,6.55 14.45,6.45 14.56,6.42 14.54,6.35 14.44,6.37 14.41,6.27 
		14.34,6.28 14.37,6.39 14.26,6.41 	"/>
	<polygon class="st0" points="31.52,15.47 31.63,15.45 31.65,15.55 31.72,15.54 31.7,15.43 31.81,15.41 31.79,15.33 31.68,15.36 
		31.66,15.25 31.59,15.27 31.61,15.37 31.51,15.4 	"/>
	<path class="st1" d="M9.61,19.48l0.44-0.95c0.09-0.19,0.3-0.27,0.49-0.18c0.18,0.09,0.26,0.31,0.18,0.5l-0.44,0.95
		c-0.09,0.19-0.3,0.27-0.49,0.18C9.6,19.89,9.52,19.67,9.61,19.48z"/>
	<path class="st1" d="M17.02,22.99l0.44-0.95c0.09-0.19,0.3-0.27,0.49-0.18c0.18,0.09,0.26,0.31,0.18,0.5l-0.44,0.95
		c-0.09,0.19-0.3,0.27-0.49,0.18C17.02,23.4,16.94,23.18,17.02,22.99z"/>
	<path class="st0" d="M11.81,15.98l0.39-0.33l1.75,0.87l0.06,0.5c0.13,0.45-0.44,1.96-0.62,2.25l-2.92-1.38
		C10.46,17.17,11.26,15.79,11.81,15.98z"/>
	<path class="st1" d="M11.78,17.18c0.12-0.27,0.34-0.44,0.48-0.37L13,17.16c0.14,0.07,0.16,0.34,0.03,0.62
		c-0.12,0.27-0.34,0.44-0.48,0.37l-0.74-0.35C11.67,17.73,11.66,17.45,11.78,17.18z"/>
	<polyline class="st1" points="14,28.81 13.84,28.73 17.92,19.52 18.2,18.89 18.37,18.96 18.08,19.6 	"/>
	<path class="st0" d="M16.64,18.23l0.39-0.33l1.75,0.87l0.06,0.5c0.47,0.54-0.19,2.03-0.62,2.25l-2.92-1.38
		C15.46,19.77,16.24,18.35,16.64,18.23z"/>
	<path class="st1" d="M16.64,19.36c0.11-0.24,0.31-0.37,0.45-0.3l0.74,0.35c0.14,0.07,0.17,0.31,0.06,0.55
		c-0.11,0.24-0.31,0.37-0.45,0.3l-0.74-0.35C16.56,19.84,16.53,19.6,16.64,19.36z"/>
	<ellipse class="st3" cx="31.52" cy="8.99" rx="4.44" ry="4.52"/>
	<path class="st4" d="M13.31,13.69c0,0.03,0.01,0.07,0.03,0.09c0.05,0.07,0.14,0.08,0.21,0.02c0.06-0.05,0.07-0.15,0.02-0.21
		l-2.96-7.92L13.31,13.69L13.31,13.69z"/>
	<path class="st1" d="M4.43,8.08C3.51,7.58,3.06,7.09,3.1,6.61c0.07-0.98,2.17-1.52,3.91-1.8l0.02,0.13
		c-2.4,0.39-3.75,0.98-3.81,1.68c-0.06,0.84,1.76,1.82,5,2.69c3.32,0.89,7.77,1.58,12.53,1.95c4.76,0.37,9.26,0.37,12.68,0.01
		c3.33-0.36,5.28-1.04,5.34-1.88c0.05-0.66-1.08-1.42-3.17-2.14l0.04-0.12c1.53,0.52,3.33,1.34,3.26,2.27
		c-0.04,0.48-0.55,0.9-1.54,1.24c-0.93,0.33-2.25,0.58-3.92,0.76c-3.42,0.37-7.93,0.36-12.7-0.01c-4.77-0.37-9.23-1.07-12.55-1.96
		C7.55,9.27,6.96,9.09,6.43,8.91C5.63,8.64,4.96,8.36,4.43,8.08z"/>
	<ellipse class="st3" cx="5.13" cy="16.46" rx="0.46" ry="0.47"/>
	<ellipse class="st5" cx="2.2" cy="29.18" rx="0.46" ry="0.47"/>
	<ellipse class="st5" cx="17.93" cy="31.59" rx="0.9" ry="0.92"/>
	<ellipse class="st1" cx="24.79" cy="19.92" rx="0.46" ry="0.47"/>
	<polygon class="st0" points="8.13,24.05 6.07,23.97 7.29,21.53 9.28,21 	"/>
	<polygon class="st6" points="10.51,25.17 9.99,24.72 12.78,18.6 13.87,17.48 	"/>
	<polygon class="st6" points="12.87,26.18 13.54,26.26 16.17,20.07 16.25,18.5 	"/>
	<polygon class="st0" points="15.07,27.86 16.61,29.26 17.4,26.64 16.33,24.86 	"/>
	<path class="st1" d="M4.7,25.81c-1.03-0.17-1.61-0.5-1.73-0.96c-0.23-0.95,1.59-2.14,3.16-2.97L6.19,22
		c-2.16,1.14-3.26,2.14-3.09,2.82c0.2,0.82,2.23,1.16,5.58,0.95c3.42-0.22,7.86-0.99,12.49-2.17c4.63-1.18,8.91-2.62,12.03-4.06
		c3.05-1.41,4.69-2.68,4.49-3.5c-0.16-0.64-1.46-1-3.67-1.01l0-0.13c1.61,0.01,3.57,0.2,3.8,1.11c0.11,0.46-0.25,1.03-1.08,1.67
		c-0.78,0.61-1.95,1.28-3.48,1.98c-3.13,1.45-7.41,2.89-12.05,4.07c-4.64,1.18-9.09,1.95-12.52,2.17c-0.66,0.04-1.27,0.06-1.83,0.06
		C6.01,25.95,5.29,25.91,4.7,25.81z"/>
</g>
</svg>
